<?xml version="1.0" encoding="utf-8" standalone="no"?>
<!DOCTYPE svg PUBLIC "-//W3C//DTD SVG 1.1//EN"
  "http://www.w3.org/Graphics/SVG/1.1/DTD/svg11.dtd">
<svg xmlns:xlink="http://www.w3.org/1999/xlink" width="280.8pt" height="93.6pt" viewBox="0 0 280.8 93.6" xmlns="http://www.w3.org/2000/svg" version="1.1">
 <metadata>
  <rdf:RDF xmlns:dc="http://purl.org/dc/elements/1.1/" xmlns:cc="http://creativecommons.org/ns#" xmlns:rdf="http://www.w3.org/1999/02/22-rdf-syntax-ns#">
   <cc:Work>
    <dc:type rdf:resource="http://purl.org/dc/dcmitype/StillImage"/>
    <dc:date>2023-06-19T18:57:28.230629</dc:date>
    <dc:format>image/svg+xml</dc:format>
    <dc:creator>
     <cc:Agent>
      <dc:title>Matplotlib v3.5.3, https://matplotlib.org/</dc:title>
     </cc:Agent>
    </dc:creator>
   </cc:Work>
  </rdf:RDF>
 </metadata>
 <defs>
  <style type="text/css">*{stroke-linejoin: round; stroke-linecap: butt}</style>
 </defs>
 <g id="figure_1">
  <g id="patch_1">
   <path d="M 0 93.6 
L 280.8 93.6 
L 280.8 0 
L 0 0 
L 0 93.6 
z
" style="fill: none"/>
  </g>
  <g id="axes_1">
   <g id="patch_2">
    <path d="M 40.108052 74.454448 
L 98.869168 74.454448 
L 98.869168 17.589615 
L 40.108052 17.589615 
L 40.108052 74.454448 
z
" style="fill: none"/>
   </g>
   <g id="PathCollection_1">
    <defs>
     <path id="m26f80379a1" d="M 0 1.118034 
C 0.296506 1.118034 0.580908 1.000231 0.790569 0.790569 
C 1.000231 0.580908 1.118034 0.296506 1.118034 0 
C 1.118034 -0.296506 1.000231 -0.580908 0.790569 -0.790569 
C 0.580908 -1.000231 0.296506 -1.118034 0 -1.118034 
C -0.296506 -1.118034 -0.580908 -1.000231 -0.790569 -0.790569 
C -1.000231 -0.580908 -1.118034 -0.296506 -1.118034 0 
C -1.118034 0.296506 -1.000231 0.580908 -0.790569 0.790569 
C -0.580908 1.000231 -0.296506 1.118034 0 1.118034 
z
" style="stroke: #00b7ee"/>
    </defs>
    <g clip-path="url(#p61a6cc99aa)">
     <use xlink:href="#m26f80379a1" x="76.825615" y="47.213984" style="fill: #00b7ee; stroke: #00b7ee"/>
     <use xlink:href="#m26f80379a1" x="68.156932" y="56.983894" style="fill: #00b7ee; stroke: #00b7ee"/>
     <use xlink:href="#m26f80379a1" x="76.676506" y="36.973858" style="fill: #00b7ee; stroke: #00b7ee"/>
     <use xlink:href="#m26f80379a1" x="96.198209" y="20.17438" style="fill: #00b7ee; stroke: #00b7ee"/>
     <use xlink:href="#m26f80379a1" x="70.395287" y="50.248119" style="fill: #00b7ee; stroke: #00b7ee"/>
     <use xlink:href="#m26f80379a1" x="82.371247" y="39.352694" style="fill: #00b7ee; stroke: #00b7ee"/>
     <use xlink:href="#m26f80379a1" x="74.95713" y="51.64047" style="fill: #00b7ee; stroke: #00b7ee"/>
     <use xlink:href="#m26f80379a1" x="68.408265" y="50.529163" style="fill: #00b7ee; stroke: #00b7ee"/>
     <use xlink:href="#m26f80379a1" x="73.172465" y="56.272133" style="fill: #00b7ee; stroke: #00b7ee"/>
     <use xlink:href="#m26f80379a1" x="75.487141" y="62.591793" style="fill: #00b7ee; stroke: #00b7ee"/>
     <use xlink:href="#m26f80379a1" x="75.041892" y="55.269028" style="fill: #00b7ee; stroke: #00b7ee"/>
     <use xlink:href="#m26f80379a1" x="70.757287" y="57.508927" style="fill: #00b7ee; stroke: #00b7ee"/>
     <use xlink:href="#m26f80379a1" x="75.818453" y="55.770401" style="fill: #00b7ee; stroke: #00b7ee"/>
     <use xlink:href="#m26f80379a1" x="70.484119" y="66.002837" style="fill: #00b7ee; stroke: #00b7ee"/>
     <use xlink:href="#m26f80379a1" x="42.779012" y="71.869682" style="fill: #00b7ee; stroke: #00b7ee"/>
     <use xlink:href="#m26f80379a1" x="73.281809" y="44.127693" style="fill: #00b7ee; stroke: #00b7ee"/>
     <use xlink:href="#m26f80379a1" x="73.493344" y="49.745688" style="fill: #00b7ee; stroke: #00b7ee"/>
     <use xlink:href="#m26f80379a1" x="68.549605" y="62.102961" style="fill: #00b7ee; stroke: #00b7ee"/>
     <use xlink:href="#m26f80379a1" x="71.434319" y="62.793245" style="fill: #00b7ee; stroke: #00b7ee"/>
     <use xlink:href="#m26f80379a1" x="73.442213" y="56.67075" style="fill: #00b7ee; stroke: #00b7ee"/>
    </g>
   </g>
   <g id="matplotlib.axis_1">
    <g id="xtick_1">
     <g id="line2d_1">
      <defs>
       <path id="m01e5141057" d="M 0 0 
L 0 3.5 
" style="stroke: #000000; stroke-width: 0.8"/>
      </defs>
      <g>
       <use xlink:href="#m01e5141057" x="57.48477" y="74.454448" style="stroke: #000000; stroke-width: 0.8"/>
      </g>
     </g>
     <g id="text_1">
      <!-- −2.5 -->
      <g transform="translate(47.614458 88.61226)scale(0.1 -0.1)">
       <defs>
        <path id="ArialMT-2212" d="M 3381 1997 
L 356 1997 
L 356 2522 
L 3381 2522 
L 3381 1997 
z
" transform="scale(0.015625)"/>
        <path id="ArialMT-32" d="M 3222 541 
L 3222 0 
L 194 0 
Q 188 203 259 391 
Q 375 700 629 1000 
Q 884 1300 1366 1694 
Q 2113 2306 2375 2664 
Q 2638 3022 2638 3341 
Q 2638 3675 2398 3904 
Q 2159 4134 1775 4134 
Q 1369 4134 1125 3890 
Q 881 3647 878 3216 
L 300 3275 
Q 359 3922 746 4261 
Q 1134 4600 1788 4600 
Q 2447 4600 2831 4234 
Q 3216 3869 3216 3328 
Q 3216 3053 3103 2787 
Q 2991 2522 2730 2228 
Q 2469 1934 1863 1422 
Q 1356 997 1212 845 
Q 1069 694 975 541 
L 3222 541 
z
" transform="scale(0.015625)"/>
        <path id="ArialMT-2e" d="M 581 0 
L 581 641 
L 1222 641 
L 1222 0 
L 581 0 
z
" transform="scale(0.015625)"/>
        <path id="ArialMT-35" d="M 266 1200 
L 856 1250 
Q 922 819 1161 601 
Q 1400 384 1738 384 
Q 2144 384 2425 690 
Q 2706 997 2706 1503 
Q 2706 1984 2436 2262 
Q 2166 2541 1728 2541 
Q 1456 2541 1237 2417 
Q 1019 2294 894 2097 
L 366 2166 
L 809 4519 
L 3088 4519 
L 3088 3981 
L 1259 3981 
L 1013 2750 
Q 1425 3038 1878 3038 
Q 2478 3038 2890 2622 
Q 3303 2206 3303 1553 
Q 3303 931 2941 478 
Q 2500 -78 1738 -78 
Q 1113 -78 717 272 
Q 322 622 266 1200 
z
" transform="scale(0.015625)"/>
       </defs>
       <use xlink:href="#ArialMT-2212"/>
       <use xlink:href="#ArialMT-32" x="58.398438"/>
       <use xlink:href="#ArialMT-2e" x="114.013672"/>
       <use xlink:href="#ArialMT-35" x="141.796875"/>
      </g>
     </g>
    </g>
    <g id="xtick_2">
     <g id="line2d_2">
      <g>
       <use xlink:href="#m01e5141057" x="75.112119" y="74.454448" style="stroke: #000000; stroke-width: 0.8"/>
      </g>
     </g>
     <g id="text_2">
      <!-- 0.0 -->
      <g transform="translate(68.162119 88.61226)scale(0.1 -0.1)">
       <defs>
        <path id="ArialMT-30" d="M 266 2259 
Q 266 3072 433 3567 
Q 600 4063 929 4331 
Q 1259 4600 1759 4600 
Q 2128 4600 2406 4451 
Q 2684 4303 2865 4023 
Q 3047 3744 3150 3342 
Q 3253 2941 3253 2259 
Q 3253 1453 3087 958 
Q 2922 463 2592 192 
Q 2263 -78 1759 -78 
Q 1097 -78 719 397 
Q 266 969 266 2259 
z
M 844 2259 
Q 844 1131 1108 757 
Q 1372 384 1759 384 
Q 2147 384 2411 759 
Q 2675 1134 2675 2259 
Q 2675 3391 2411 3762 
Q 2147 4134 1753 4134 
Q 1366 4134 1134 3806 
Q 844 3388 844 2259 
z
" transform="scale(0.015625)"/>
       </defs>
       <use xlink:href="#ArialMT-30"/>
       <use xlink:href="#ArialMT-2e" x="55.615234"/>
       <use xlink:href="#ArialMT-30" x="83.398438"/>
      </g>
     </g>
    </g>
    <g id="xtick_3">
     <g id="line2d_3">
      <g>
       <use xlink:href="#m01e5141057" x="92.739467" y="74.454448" style="stroke: #000000; stroke-width: 0.8"/>
      </g>
     </g>
     <g id="text_3">
      <!-- 2.5 -->
      <g transform="translate(85.789467 88.61226)scale(0.1 -0.1)">
       <use xlink:href="#ArialMT-32"/>
       <use xlink:href="#ArialMT-2e" x="55.615234"/>
       <use xlink:href="#ArialMT-35" x="83.398438"/>
      </g>
     </g>
    </g>
   </g>
   <g id="matplotlib.axis_2">
    <g id="ytick_1">
     <g id="line2d_4">
      <defs>
       <path id="mab837b97f6" d="M 0 0 
L -3.5 0 
" style="stroke: #000000; stroke-width: 0.8"/>
      </defs>
      <g>
       <use xlink:href="#mab837b97f6" x="40.108052" y="71.591255" style="stroke: #000000; stroke-width: 0.8"/>
      </g>
     </g>
     <g id="text_4">
      <!-- −30 -->
      <g transform="translate(16.145552 75.170162)scale(0.1 -0.1)">
       <defs>
        <path id="ArialMT-33" d="M 269 1209 
L 831 1284 
Q 928 806 1161 595 
Q 1394 384 1728 384 
Q 2125 384 2398 659 
Q 2672 934 2672 1341 
Q 2672 1728 2419 1979 
Q 2166 2231 1775 2231 
Q 1616 2231 1378 2169 
L 1441 2663 
Q 1497 2656 1531 2656 
Q 1891 2656 2178 2843 
Q 2466 3031 2466 3422 
Q 2466 3731 2256 3934 
Q 2047 4138 1716 4138 
Q 1388 4138 1169 3931 
Q 950 3725 888 3313 
L 325 3413 
Q 428 3978 793 4289 
Q 1159 4600 1703 4600 
Q 2078 4600 2393 4439 
Q 2709 4278 2876 4000 
Q 3044 3722 3044 3409 
Q 3044 3113 2884 2869 
Q 2725 2625 2413 2481 
Q 2819 2388 3044 2092 
Q 3269 1797 3269 1353 
Q 3269 753 2831 336 
Q 2394 -81 1725 -81 
Q 1122 -81 723 278 
Q 325 638 269 1209 
z
" transform="scale(0.015625)"/>
       </defs>
       <use xlink:href="#ArialMT-2212"/>
       <use xlink:href="#ArialMT-33" x="58.398438"/>
       <use xlink:href="#ArialMT-30" x="114.013672"/>
      </g>
     </g>
    </g>
    <g id="ytick_2">
     <g id="line2d_5">
      <g>
       <use xlink:href="#mab837b97f6" x="40.108052" y="46.608464" style="stroke: #000000; stroke-width: 0.8"/>
      </g>
     </g>
     <g id="text_5">
      <!-- −20 -->
      <g transform="translate(16.145552 50.18737)scale(0.1 -0.1)">
       <use xlink:href="#ArialMT-2212"/>
       <use xlink:href="#ArialMT-32" x="58.398438"/>
       <use xlink:href="#ArialMT-30" x="114.013672"/>
      </g>
     </g>
    </g>
    <g id="ytick_3">
     <g id="line2d_6">
      <g>
       <use xlink:href="#mab837b97f6" x="40.108052" y="21.625673" style="stroke: #000000; stroke-width: 0.8"/>
      </g>
     </g>
     <g id="text_6">
      <!-- −10 -->
      <g transform="translate(16.145552 25.204579)scale(0.1 -0.1)">
       <defs>
        <path id="ArialMT-31" d="M 2384 0 
L 1822 0 
L 1822 3584 
Q 1619 3391 1289 3197 
Q 959 3003 697 2906 
L 697 3450 
Q 1169 3672 1522 3987 
Q 1875 4303 2022 4600 
L 2384 4600 
L 2384 0 
z
" transform="scale(0.015625)"/>
       </defs>
       <use xlink:href="#ArialMT-2212"/>
       <use xlink:href="#ArialMT-31" x="58.398438"/>
       <use xlink:href="#ArialMT-30" x="114.013672"/>
      </g>
     </g>
    </g>
    <g id="text_7">
     <!-- structure score -->
     <g transform="translate(10.158052 79.086094)rotate(-90)scale(0.1 -0.1)">
      <defs>
       <path id="ArialMT-73" d="M 197 991 
L 753 1078 
Q 800 744 1014 566 
Q 1228 388 1613 388 
Q 2000 388 2187 545 
Q 2375 703 2375 916 
Q 2375 1106 2209 1216 
Q 2094 1291 1634 1406 
Q 1016 1563 777 1677 
Q 538 1791 414 1992 
Q 291 2194 291 2438 
Q 291 2659 392 2848 
Q 494 3038 669 3163 
Q 800 3259 1026 3326 
Q 1253 3394 1513 3394 
Q 1903 3394 2198 3281 
Q 2494 3169 2634 2976 
Q 2775 2784 2828 2463 
L 2278 2388 
Q 2241 2644 2061 2787 
Q 1881 2931 1553 2931 
Q 1166 2931 1000 2803 
Q 834 2675 834 2503 
Q 834 2394 903 2306 
Q 972 2216 1119 2156 
Q 1203 2125 1616 2013 
Q 2213 1853 2448 1751 
Q 2684 1650 2818 1456 
Q 2953 1263 2953 975 
Q 2953 694 2789 445 
Q 2625 197 2315 61 
Q 2006 -75 1616 -75 
Q 969 -75 630 194 
Q 291 463 197 991 
z
" transform="scale(0.015625)"/>
       <path id="ArialMT-74" d="M 1650 503 
L 1731 6 
Q 1494 -44 1306 -44 
Q 1000 -44 831 53 
Q 663 150 594 308 
Q 525 466 525 972 
L 525 2881 
L 113 2881 
L 113 3319 
L 525 3319 
L 525 4141 
L 1084 4478 
L 1084 3319 
L 1650 3319 
L 1650 2881 
L 1084 2881 
L 1084 941 
Q 1084 700 1114 631 
Q 1144 563 1211 522 
Q 1278 481 1403 481 
Q 1497 481 1650 503 
z
" transform="scale(0.015625)"/>
       <path id="ArialMT-72" d="M 416 0 
L 416 3319 
L 922 3319 
L 922 2816 
Q 1116 3169 1280 3281 
Q 1444 3394 1641 3394 
Q 1925 3394 2219 3213 
L 2025 2691 
Q 1819 2813 1613 2813 
Q 1428 2813 1281 2702 
Q 1134 2591 1072 2394 
Q 978 2094 978 1738 
L 978 0 
L 416 0 
z
" transform="scale(0.015625)"/>
       <path id="ArialMT-75" d="M 2597 0 
L 2597 488 
Q 2209 -75 1544 -75 
Q 1250 -75 995 37 
Q 741 150 617 320 
Q 494 491 444 738 
Q 409 903 409 1263 
L 409 3319 
L 972 3319 
L 972 1478 
Q 972 1038 1006 884 
Q 1059 663 1231 536 
Q 1403 409 1656 409 
Q 1909 409 2131 539 
Q 2353 669 2445 892 
Q 2538 1116 2538 1541 
L 2538 3319 
L 3100 3319 
L 3100 0 
L 2597 0 
z
" transform="scale(0.015625)"/>
       <path id="ArialMT-63" d="M 2588 1216 
L 3141 1144 
Q 3050 572 2676 248 
Q 2303 -75 1759 -75 
Q 1078 -75 664 370 
Q 250 816 250 1647 
Q 250 2184 428 2587 
Q 606 2991 970 3192 
Q 1334 3394 1763 3394 
Q 2303 3394 2647 3120 
Q 2991 2847 3088 2344 
L 2541 2259 
Q 2463 2594 2264 2762 
Q 2066 2931 1784 2931 
Q 1359 2931 1093 2626 
Q 828 2322 828 1663 
Q 828 994 1084 691 
Q 1341 388 1753 388 
Q 2084 388 2306 591 
Q 2528 794 2588 1216 
z
" transform="scale(0.015625)"/>
       <path id="ArialMT-65" d="M 2694 1069 
L 3275 997 
Q 3138 488 2766 206 
Q 2394 -75 1816 -75 
Q 1088 -75 661 373 
Q 234 822 234 1631 
Q 234 2469 665 2931 
Q 1097 3394 1784 3394 
Q 2450 3394 2872 2941 
Q 3294 2488 3294 1666 
Q 3294 1616 3291 1516 
L 816 1516 
Q 847 969 1125 678 
Q 1403 388 1819 388 
Q 2128 388 2347 550 
Q 2566 713 2694 1069 
z
M 847 1978 
L 2700 1978 
Q 2663 2397 2488 2606 
Q 2219 2931 1791 2931 
Q 1403 2931 1139 2672 
Q 875 2413 847 1978 
z
" transform="scale(0.015625)"/>
       <path id="ArialMT-20" transform="scale(0.015625)"/>
       <path id="ArialMT-6f" d="M 213 1659 
Q 213 2581 725 3025 
Q 1153 3394 1769 3394 
Q 2453 3394 2887 2945 
Q 3322 2497 3322 1706 
Q 3322 1066 3130 698 
Q 2938 331 2570 128 
Q 2203 -75 1769 -75 
Q 1072 -75 642 372 
Q 213 819 213 1659 
z
M 791 1659 
Q 791 1022 1069 705 
Q 1347 388 1769 388 
Q 2188 388 2466 706 
Q 2744 1025 2744 1678 
Q 2744 2294 2464 2611 
Q 2184 2928 1769 2928 
Q 1347 2928 1069 2612 
Q 791 2297 791 1659 
z
" transform="scale(0.015625)"/>
      </defs>
      <use xlink:href="#ArialMT-73"/>
      <use xlink:href="#ArialMT-74" x="50"/>
      <use xlink:href="#ArialMT-72" x="77.783203"/>
      <use xlink:href="#ArialMT-75" x="111.083984"/>
      <use xlink:href="#ArialMT-63" x="166.699219"/>
      <use xlink:href="#ArialMT-74" x="216.699219"/>
      <use xlink:href="#ArialMT-75" x="244.482422"/>
      <use xlink:href="#ArialMT-72" x="300.097656"/>
      <use xlink:href="#ArialMT-65" x="333.398438"/>
      <use xlink:href="#ArialMT-20" x="389.013672"/>
      <use xlink:href="#ArialMT-73" x="416.796875"/>
      <use xlink:href="#ArialMT-63" x="466.796875"/>
      <use xlink:href="#ArialMT-6f" x="516.796875"/>
      <use xlink:href="#ArialMT-72" x="572.412109"/>
      <use xlink:href="#ArialMT-65" x="605.712891"/>
     </g>
    </g>
   </g>
   <g id="patch_3">
    <path d="M 40.108052 74.454447 
L 40.108052 17.589615 
" style="fill: none; stroke: #000000; stroke-width: 0.8; stroke-linejoin: miter; stroke-linecap: square"/>
   </g>
   <g id="patch_4">
    <path d="M 40.108052 74.454448 
L 98.869168 74.454448 
" style="fill: none; stroke: #000000; stroke-width: 0.8; stroke-linejoin: miter; stroke-linecap: square"/>
   </g>
   <g id="text_8">
    <!-- r: 0.78 -->
    <g transform="translate(43.046108 24.747428)scale(0.1 -0.1)">
     <defs>
      <path id="ArialMT-3a" d="M 578 2678 
L 578 3319 
L 1219 3319 
L 1219 2678 
L 578 2678 
z
M 578 0 
L 578 641 
L 1219 641 
L 1219 0 
L 578 0 
z
" transform="scale(0.015625)"/>
      <path id="ArialMT-37" d="M 303 3981 
L 303 4522 
L 3269 4522 
L 3269 4084 
Q 2831 3619 2401 2847 
Q 1972 2075 1738 1259 
Q 1569 684 1522 0 
L 944 0 
Q 953 541 1156 1306 
Q 1359 2072 1739 2783 
Q 2119 3494 2547 3981 
L 303 3981 
z
" transform="scale(0.015625)"/>
      <path id="ArialMT-38" d="M 1131 2484 
Q 781 2613 612 2850 
Q 444 3088 444 3419 
Q 444 3919 803 4259 
Q 1163 4600 1759 4600 
Q 2359 4600 2725 4251 
Q 3091 3903 3091 3403 
Q 3091 3084 2923 2848 
Q 2756 2613 2416 2484 
Q 2838 2347 3058 2040 
Q 3278 1734 3278 1309 
Q 3278 722 2862 322 
Q 2447 -78 1769 -78 
Q 1091 -78 675 323 
Q 259 725 259 1325 
Q 259 1772 486 2073 
Q 713 2375 1131 2484 
z
M 1019 3438 
Q 1019 3113 1228 2906 
Q 1438 2700 1772 2700 
Q 2097 2700 2305 2904 
Q 2513 3109 2513 3406 
Q 2513 3716 2298 3927 
Q 2084 4138 1766 4138 
Q 1444 4138 1231 3931 
Q 1019 3725 1019 3438 
z
M 838 1322 
Q 838 1081 952 856 
Q 1066 631 1291 507 
Q 1516 384 1775 384 
Q 2178 384 2440 643 
Q 2703 903 2703 1303 
Q 2703 1709 2433 1975 
Q 2163 2241 1756 2241 
Q 1359 2241 1098 1978 
Q 838 1716 838 1322 
z
" transform="scale(0.015625)"/>
     </defs>
     <use xlink:href="#ArialMT-72"/>
     <use xlink:href="#ArialMT-3a" x="33.300781"/>
     <use xlink:href="#ArialMT-20" x="61.083984"/>
     <use xlink:href="#ArialMT-30" x="88.867188"/>
     <use xlink:href="#ArialMT-2e" x="144.482422"/>
     <use xlink:href="#ArialMT-37" x="172.265625"/>
     <use xlink:href="#ArialMT-38" x="227.880859"/>
    </g>
   </g>
   <g id="text_9">
    <!-- D61* -->
    <g transform="translate(56.147048 11.589615)scale(0.12 -0.12)">
     <defs>
      <path id="ArialMT-44" d="M 494 0 
L 494 4581 
L 2072 4581 
Q 2606 4581 2888 4516 
Q 3281 4425 3559 4188 
Q 3922 3881 4101 3404 
Q 4281 2928 4281 2316 
Q 4281 1794 4159 1391 
Q 4038 988 3847 723 
Q 3656 459 3429 307 
Q 3203 156 2883 78 
Q 2563 0 2147 0 
L 494 0 
z
M 1100 541 
L 2078 541 
Q 2531 541 2789 625 
Q 3047 709 3200 863 
Q 3416 1078 3536 1442 
Q 3656 1806 3656 2325 
Q 3656 3044 3420 3430 
Q 3184 3816 2847 3947 
Q 2603 4041 2063 4041 
L 1100 4041 
L 1100 541 
z
" transform="scale(0.015625)"/>
      <path id="ArialMT-36" d="M 3184 3459 
L 2625 3416 
Q 2550 3747 2413 3897 
Q 2184 4138 1850 4138 
Q 1581 4138 1378 3988 
Q 1113 3794 959 3422 
Q 806 3050 800 2363 
Q 1003 2672 1297 2822 
Q 1591 2972 1913 2972 
Q 2475 2972 2870 2558 
Q 3266 2144 3266 1488 
Q 3266 1056 3080 686 
Q 2894 316 2569 119 
Q 2244 -78 1831 -78 
Q 1128 -78 684 439 
Q 241 956 241 2144 
Q 241 3472 731 4075 
Q 1159 4600 1884 4600 
Q 2425 4600 2770 4297 
Q 3116 3994 3184 3459 
z
M 888 1484 
Q 888 1194 1011 928 
Q 1134 663 1356 523 
Q 1578 384 1822 384 
Q 2178 384 2434 671 
Q 2691 959 2691 1453 
Q 2691 1928 2437 2201 
Q 2184 2475 1800 2475 
Q 1419 2475 1153 2201 
Q 888 1928 888 1484 
z
" transform="scale(0.015625)"/>
      <path id="ArialMT-2a" d="M 200 3741 
L 344 4184 
Q 841 4009 1066 3881 
Q 1006 4447 1003 4659 
L 1456 4659 
Q 1447 4350 1384 3884 
Q 1706 4047 2122 4184 
L 2266 3741 
Q 1869 3609 1488 3566 
Q 1678 3400 2025 2975 
L 1650 2709 
Q 1469 2956 1222 3381 
Q 991 2941 816 2709 
L 447 2975 
Q 809 3422 966 3566 
Q 563 3644 200 3741 
z
" transform="scale(0.015625)"/>
     </defs>
     <use xlink:href="#ArialMT-44"/>
     <use xlink:href="#ArialMT-36" x="72.216797"/>
     <use xlink:href="#ArialMT-31" x="127.832031"/>
     <use xlink:href="#ArialMT-2a" x="183.447266"/>
    </g>
   </g>
  </g>
  <g id="axes_2">
   <g id="patch_5">
    <path d="M 129.61664 74.454448 
L 188.377756 74.454448 
L 188.377756 17.589615 
L 129.61664 17.589615 
L 129.61664 74.454448 
z
" style="fill: none"/>
   </g>
   <g id="PathCollection_2">
    <g clip-path="url(#p8e4485a2d3)">
     <use xlink:href="#m26f80379a1" x="168.294007" y="31.452203" style="fill: #00b7ee; stroke: #00b7ee"/>
     <use xlink:href="#m26f80379a1" x="169.612374" y="23.491788" style="fill: #00b7ee; stroke: #00b7ee"/>
     <use xlink:href="#m26f80379a1" x="156.783364" y="34.175735" style="fill: #00b7ee; stroke: #00b7ee"/>
     <use xlink:href="#m26f80379a1" x="152.38541" y="43.690951" style="fill: #00b7ee; stroke: #00b7ee"/>
     <use xlink:href="#m26f80379a1" x="162.807609" y="20.17438" style="fill: #00b7ee; stroke: #00b7ee"/>
     <use xlink:href="#m26f80379a1" x="166.0686" y="32.953584" style="fill: #00b7ee; stroke: #00b7ee"/>
     <use xlink:href="#m26f80379a1" x="168.090403" y="27.700965" style="fill: #00b7ee; stroke: #00b7ee"/>
     <use xlink:href="#m26f80379a1" x="151.977302" y="46.791691" style="fill: #00b7ee; stroke: #00b7ee"/>
     <use xlink:href="#m26f80379a1" x="164.032177" y="35.427694" style="fill: #00b7ee; stroke: #00b7ee"/>
     <use xlink:href="#m26f80379a1" x="170.241356" y="35.623105" style="fill: #00b7ee; stroke: #00b7ee"/>
     <use xlink:href="#m26f80379a1" x="162.29007" y="33.553995" style="fill: #00b7ee; stroke: #00b7ee"/>
     <use xlink:href="#m26f80379a1" x="185.706796" y="21.20838" style="fill: #00b7ee; stroke: #00b7ee"/>
     <use xlink:href="#m26f80379a1" x="165.67492" y="27.971673" style="fill: #00b7ee; stroke: #00b7ee"/>
     <use xlink:href="#m26f80379a1" x="158.24735" y="45.117939" style="fill: #00b7ee; stroke: #00b7ee"/>
     <use xlink:href="#m26f80379a1" x="132.2876" y="71.869682" style="fill: #00b7ee; stroke: #00b7ee"/>
     <use xlink:href="#m26f80379a1" x="162.568016" y="32.194023" style="fill: #00b7ee; stroke: #00b7ee"/>
     <use xlink:href="#m26f80379a1" x="164.63639" y="29.147167" style="fill: #00b7ee; stroke: #00b7ee"/>
     <use xlink:href="#m26f80379a1" x="161.116404" y="44.973169" style="fill: #00b7ee; stroke: #00b7ee"/>
     <use xlink:href="#m26f80379a1" x="166.023146" y="42.33063" style="fill: #00b7ee; stroke: #00b7ee"/>
     <use xlink:href="#m26f80379a1" x="169.13455" y="29.972233" style="fill: #00b7ee; stroke: #00b7ee"/>
    </g>
   </g>
   <g id="matplotlib.axis_3">
    <g id="xtick_4">
     <g id="line2d_7">
      <g>
       <use xlink:href="#m01e5141057" x="146.570082" y="74.454448" style="stroke: #000000; stroke-width: 0.8"/>
      </g>
     </g>
     <g id="text_10">
      <!-- −2.5 -->
      <g transform="translate(136.699769 88.61226)scale(0.1 -0.1)">
       <use xlink:href="#ArialMT-2212"/>
       <use xlink:href="#ArialMT-32" x="58.398438"/>
       <use xlink:href="#ArialMT-2e" x="114.013672"/>
       <use xlink:href="#ArialMT-35" x="141.796875"/>
      </g>
     </g>
    </g>
    <g id="xtick_5">
     <g id="line2d_8">
      <g>
       <use xlink:href="#m01e5141057" x="164.366028" y="74.454448" style="stroke: #000000; stroke-width: 0.8"/>
      </g>
     </g>
     <g id="text_11">
      <!-- 0.0 -->
      <g transform="translate(157.416028 88.61226)scale(0.1 -0.1)">
       <use xlink:href="#ArialMT-30"/>
       <use xlink:href="#ArialMT-2e" x="55.615234"/>
       <use xlink:href="#ArialMT-30" x="83.398438"/>
      </g>
     </g>
    </g>
    <g id="xtick_6">
     <g id="line2d_9">
      <g>
       <use xlink:href="#m01e5141057" x="182.161975" y="74.454448" style="stroke: #000000; stroke-width: 0.8"/>
      </g>
     </g>
     <g id="text_12">
      <!-- 2.5 -->
      <g transform="translate(175.211975 88.61226)scale(0.1 -0.1)">
       <use xlink:href="#ArialMT-32"/>
       <use xlink:href="#ArialMT-2e" x="55.615234"/>
       <use xlink:href="#ArialMT-35" x="83.398438"/>
      </g>
     </g>
    </g>
   </g>
   <g id="matplotlib.axis_4">
    <g id="ytick_4">
     <g id="line2d_10">
      <g>
       <use xlink:href="#mab837b97f6" x="129.61664" y="60.231725" style="stroke: #000000; stroke-width: 0.8"/>
      </g>
     </g>
     <g id="text_13">
      <!-- −20 -->
      <g transform="translate(105.65414 63.810631)scale(0.1 -0.1)">
       <use xlink:href="#ArialMT-2212"/>
       <use xlink:href="#ArialMT-32" x="58.398438"/>
       <use xlink:href="#ArialMT-30" x="114.013672"/>
      </g>
     </g>
    </g>
    <g id="ytick_5">
     <g id="line2d_11">
      <g>
       <use xlink:href="#mab837b97f6" x="129.61664" y="32.86785" style="stroke: #000000; stroke-width: 0.8"/>
      </g>
     </g>
     <g id="text_14">
      <!-- −10 -->
      <g transform="translate(105.65414 36.446756)scale(0.1 -0.1)">
       <use xlink:href="#ArialMT-2212"/>
       <use xlink:href="#ArialMT-31" x="58.398438"/>
       <use xlink:href="#ArialMT-30" x="114.013672"/>
      </g>
     </g>
    </g>
   </g>
   <g id="patch_6">
    <path d="M 129.61664 74.454448 
L 129.61664 17.589615 
" style="fill: none; stroke: #000000; stroke-width: 0.8; stroke-linejoin: miter; stroke-linecap: square"/>
   </g>
   <g id="patch_7">
    <path d="M 129.61664 74.454448 
L 188.377756 74.454448 
" style="fill: none; stroke: #000000; stroke-width: 0.8; stroke-linejoin: miter; stroke-linecap: square"/>
   </g>
   <g id="text_15">
    <!-- r: 0.84 -->
    <g transform="translate(132.554696 24.747428)scale(0.1 -0.1)">
     <defs>
      <path id="ArialMT-34" d="M 2069 0 
L 2069 1097 
L 81 1097 
L 81 1613 
L 2172 4581 
L 2631 4581 
L 2631 1613 
L 3250 1613 
L 3250 1097 
L 2631 1097 
L 2631 0 
L 2069 0 
z
M 2069 1613 
L 2069 3678 
L 634 1613 
L 2069 1613 
z
" transform="scale(0.015625)"/>
     </defs>
     <use xlink:href="#ArialMT-72"/>
     <use xlink:href="#ArialMT-3a" x="33.300781"/>
     <use xlink:href="#ArialMT-20" x="61.083984"/>
     <use xlink:href="#ArialMT-30" x="88.867188"/>
     <use xlink:href="#ArialMT-2e" x="144.482422"/>
     <use xlink:href="#ArialMT-38" x="172.265625"/>
     <use xlink:href="#ArialMT-34" x="227.880859"/>
    </g>
   </g>
   <g id="text_16">
    <!-- K64* -->
    <g transform="translate(145.986573 11.589615)scale(0.12 -0.12)">
     <defs>
      <path id="ArialMT-4b" d="M 469 0 
L 469 4581 
L 1075 4581 
L 1075 2309 
L 3350 4581 
L 4172 4581 
L 2250 2725 
L 4256 0 
L 3456 0 
L 1825 2319 
L 1075 1588 
L 1075 0 
L 469 0 
z
" transform="scale(0.015625)"/>
     </defs>
     <use xlink:href="#ArialMT-4b"/>
     <use xlink:href="#ArialMT-36" x="66.699219"/>
     <use xlink:href="#ArialMT-34" x="122.314453"/>
     <use xlink:href="#ArialMT-2a" x="177.929688"/>
    </g>
   </g>
  </g>
  <g id="axes_3">
   <g id="patch_8">
    <path d="M 219.038644 74.454448 
L 277.79976 74.454448 
L 277.79976 17.589615 
L 219.038644 17.589615 
L 219.038644 74.454448 
z
" style="fill: none"/>
   </g>
   <g id="PathCollection_3">
    <g clip-path="url(#pb7f52af516)">
     <use xlink:href="#m26f80379a1" x="265.392647" y="34.893206" style="fill: #00b7ee; stroke: #00b7ee"/>
     <use xlink:href="#m26f80379a1" x="256.21362" y="36.837333" style="fill: #00b7ee; stroke: #00b7ee"/>
     <use xlink:href="#m26f80379a1" x="253.909657" y="45.03099" style="fill: #00b7ee; stroke: #00b7ee"/>
     <use xlink:href="#m26f80379a1" x="258.965482" y="41.610583" style="fill: #00b7ee; stroke: #00b7ee"/>
     <use xlink:href="#m26f80379a1" x="261.468824" y="45.508137" style="fill: #00b7ee; stroke: #00b7ee"/>
     <use xlink:href="#m26f80379a1" x="275.1288" y="20.17438" style="fill: #00b7ee; stroke: #00b7ee"/>
     <use xlink:href="#m26f80379a1" x="267.464843" y="27.138989" style="fill: #00b7ee; stroke: #00b7ee"/>
     <use xlink:href="#m26f80379a1" x="247.867207" y="50.851727" style="fill: #00b7ee; stroke: #00b7ee"/>
     <use xlink:href="#m26f80379a1" x="263.011274" y="43.425533" style="fill: #00b7ee; stroke: #00b7ee"/>
     <use xlink:href="#m26f80379a1" x="272.462346" y="40.095204" style="fill: #00b7ee; stroke: #00b7ee"/>
     <use xlink:href="#m26f80379a1" x="271.164713" y="40.009896" style="fill: #00b7ee; stroke: #00b7ee"/>
     <use xlink:href="#m26f80379a1" x="259.613315" y="33.330313" style="fill: #00b7ee; stroke: #00b7ee"/>
     <use xlink:href="#m26f80379a1" x="266.335097" y="35.946698" style="fill: #00b7ee; stroke: #00b7ee"/>
     <use xlink:href="#m26f80379a1" x="263.687675" y="51.394376" style="fill: #00b7ee; stroke: #00b7ee"/>
     <use xlink:href="#m26f80379a1" x="221.709604" y="71.869682" style="fill: #00b7ee; stroke: #00b7ee"/>
     <use xlink:href="#m26f80379a1" x="259.30718" y="38.877285" style="fill: #00b7ee; stroke: #00b7ee"/>
     <use xlink:href="#m26f80379a1" x="264.542829" y="37.948357" style="fill: #00b7ee; stroke: #00b7ee"/>
     <use xlink:href="#m26f80379a1" x="256.132537" y="56.586266" style="fill: #00b7ee; stroke: #00b7ee"/>
     <use xlink:href="#m26f80379a1" x="264.194169" y="49.709217" style="fill: #00b7ee; stroke: #00b7ee"/>
     <use xlink:href="#m26f80379a1" x="268.939194" y="38.258824" style="fill: #00b7ee; stroke: #00b7ee"/>
    </g>
   </g>
   <g id="matplotlib.axis_5">
    <g id="xtick_7">
     <g id="line2d_12">
      <g>
       <use xlink:href="#m01e5141057" x="237.345095" y="74.454448" style="stroke: #000000; stroke-width: 0.8"/>
      </g>
     </g>
     <g id="text_17">
      <!-- −2.5 -->
      <g transform="translate(227.474783 88.61226)scale(0.1 -0.1)">
       <use xlink:href="#ArialMT-2212"/>
       <use xlink:href="#ArialMT-32" x="58.398438"/>
       <use xlink:href="#ArialMT-2e" x="114.013672"/>
       <use xlink:href="#ArialMT-35" x="141.796875"/>
      </g>
     </g>
    </g>
    <g id="xtick_8">
     <g id="line2d_13">
      <g>
       <use xlink:href="#m01e5141057" x="261.920259" y="74.454448" style="stroke: #000000; stroke-width: 0.8"/>
      </g>
     </g>
     <g id="text_18">
      <!-- 0.0 -->
      <g transform="translate(254.970259 88.61226)scale(0.1 -0.1)">
       <use xlink:href="#ArialMT-30"/>
       <use xlink:href="#ArialMT-2e" x="55.615234"/>
       <use xlink:href="#ArialMT-30" x="83.398438"/>
      </g>
     </g>
    </g>
   </g>
   <g id="matplotlib.axis_6">
    <g id="ytick_6">
     <g id="line2d_14">
      <g>
       <use xlink:href="#mab837b97f6" x="219.038644" y="64.604451" style="stroke: #000000; stroke-width: 0.8"/>
      </g>
     </g>
     <g id="text_19">
      <!-- −15 -->
      <g transform="translate(195.076144 68.183357)scale(0.1 -0.1)">
       <use xlink:href="#ArialMT-2212"/>
       <use xlink:href="#ArialMT-31" x="58.398438"/>
       <use xlink:href="#ArialMT-35" x="114.013672"/>
      </g>
     </g>
    </g>
    <g id="ytick_7">
     <g id="line2d_15">
      <g>
       <use xlink:href="#mab837b97f6" x="219.038644" y="44.900881" style="stroke: #000000; stroke-width: 0.8"/>
      </g>
     </g>
     <g id="text_20">
      <!-- −10 -->
      <g transform="translate(195.076144 48.479787)scale(0.1 -0.1)">
       <use xlink:href="#ArialMT-2212"/>
       <use xlink:href="#ArialMT-31" x="58.398438"/>
       <use xlink:href="#ArialMT-30" x="114.013672"/>
      </g>
     </g>
    </g>
    <g id="ytick_8">
     <g id="line2d_16">
      <g>
       <use xlink:href="#mab837b97f6" x="219.038644" y="25.197311" style="stroke: #000000; stroke-width: 0.8"/>
      </g>
     </g>
     <g id="text_21">
      <!-- −5 -->
      <g transform="translate(200.637082 28.776217)scale(0.1 -0.1)">
       <use xlink:href="#ArialMT-2212"/>
       <use xlink:href="#ArialMT-35" x="58.398438"/>
      </g>
     </g>
    </g>
   </g>
   <g id="patch_9">
    <path d="M 219.038644 74.454448 
L 219.038644 17.589615 
" style="fill: none; stroke: #000000; stroke-width: 0.8; stroke-linejoin: miter; stroke-linecap: square"/>
   </g>
   <g id="patch_10">
    <path d="M 219.038644 74.454448 
L 277.79976 74.454448 
" style="fill: none; stroke: #000000; stroke-width: 0.8; stroke-linejoin: miter; stroke-linecap: square"/>
   </g>
   <g id="text_22">
    <!-- r: 0.78 -->
    <g transform="translate(221.9767 24.747428)scale(0.1 -0.1)">
     <use xlink:href="#ArialMT-72"/>
     <use xlink:href="#ArialMT-3a" x="33.300781"/>
     <use xlink:href="#ArialMT-20" x="61.083984"/>
     <use xlink:href="#ArialMT-30" x="88.867188"/>
     <use xlink:href="#ArialMT-2e" x="144.482422"/>
     <use xlink:href="#ArialMT-37" x="172.265625"/>
     <use xlink:href="#ArialMT-38" x="227.880859"/>
    </g>
   </g>
   <g id="text_23">
    <!-- E80* -->
    <g transform="translate(235.408577 11.589615)scale(0.12 -0.12)">
     <defs>
      <path id="ArialMT-45" d="M 506 0 
L 506 4581 
L 3819 4581 
L 3819 4041 
L 1113 4041 
L 1113 2638 
L 3647 2638 
L 3647 2100 
L 1113 2100 
L 1113 541 
L 3925 541 
L 3925 0 
L 506 0 
z
" transform="scale(0.015625)"/>
     </defs>
     <use xlink:href="#ArialMT-45"/>
     <use xlink:href="#ArialMT-38" x="66.699219"/>
     <use xlink:href="#ArialMT-30" x="122.314453"/>
     <use xlink:href="#ArialMT-2a" x="177.929688"/>
    </g>
   </g>
  </g>
 </g>
 <defs>
  <clipPath id="p61a6cc99aa">
   <rect x="40.108052" y="17.589615" width="58.761116" height="56.864832"/>
  </clipPath>
  <clipPath id="p8e4485a2d3">
   <rect x="129.61664" y="17.589615" width="58.761116" height="56.864832"/>
  </clipPath>
  <clipPath id="pb7f52af516">
   <rect x="219.038644" y="17.589615" width="58.761116" height="56.864832"/>
  </clipPath>
 </defs>
</svg>
