<?xml version="1.0" encoding="utf-8" standalone="no"?>
<!DOCTYPE svg PUBLIC "-//W3C//DTD SVG 1.1//EN"
  "http://www.w3.org/Graphics/SVG/1.1/DTD/svg11.dtd">
<svg xmlns:xlink="http://www.w3.org/1999/xlink" width="180pt" height="108pt" viewBox="0 0 180 108" xmlns="http://www.w3.org/2000/svg" version="1.1">
 <metadata>
  <rdf:RDF xmlns:dc="http://purl.org/dc/elements/1.1/" xmlns:cc="http://creativecommons.org/ns#" xmlns:rdf="http://www.w3.org/1999/02/22-rdf-syntax-ns#">
   <cc:Work>
    <dc:type rdf:resource="http://purl.org/dc/dcmitype/StillImage"/>
    <dc:date>2023-06-20T14:17:15.062996</dc:date>
    <dc:format>image/svg+xml</dc:format>
    <dc:creator>
     <cc:Agent>
      <dc:title>Matplotlib v3.5.3, https://matplotlib.org/</dc:title>
     </cc:Agent>
    </dc:creator>
   </cc:Work>
  </rdf:RDF>
 </metadata>
 <defs>
  <style type="text/css">*{stroke-linejoin: round; stroke-linecap: butt}</style>
 </defs>
 <g id="figure_1">
  <g id="patch_1">
   <path d="M 0 108 
L 180 108 
L 180 0 
L 0 0 
L 0 108 
z
" style="fill: none"/>
  </g>
  <g id="axes_1">
   <g id="patch_2">
    <path d="M 22.5 96.12 
L 162 96.12 
L 162 12.96 
L 22.5 12.96 
L 22.5 96.12 
z
" style="fill: none"/>
   </g>
   <g id="line2d_1">
    <path d="M 22.5 96.12 
L 162 96.12 
" clip-path="url(#p44cdca3fbe)" style="fill: none; stroke: #000000; stroke-width: 0.5; stroke-linecap: square"/>
   </g>
   <g id="patch_3">
    <path d="M 22.5 95.206154 
L 26.778294 95.206154 
L 32.184298 95.832881 
L 32.184298 95.206154 
L 35.819095 95.206154 
L 35.819095 96.12 
L 31.537616 96.12 
L 26.131612 95.493273 
L 26.131612 96.12 
L 22.5 96.12 
L 22.5 95.206154 
z
" clip-path="url(#p44cdca3fbe)" style="fill: #800080"/>
   </g>
   <g id="patch_4">
    <path d="M 22.5 94.292308 
L 24.803077 94.292308 
L 26.413034 94.956442 
L 28.011005 94.292308 
L 30.326067 94.292308 
L 31.924039 94.956442 
L 33.535993 94.292308 
L 35.819095 94.292308 
L 33.621884 95.206154 
L 30.8514 95.206154 
L 29.159548 94.511466 
L 27.48767 95.206154 
L 24.715188 95.206154 
L 22.5 94.292308 
z
" clip-path="url(#p44cdca3fbe)"/>
   </g>
   <g id="patch_5">
    <path d="M 22.5 93.378462 
L 27.333446 93.378462 
L 27.333446 94.114278 
L 35.819095 94.114278 
L 35.819095 94.292308 
L 22.5 94.292308 
L 22.5 93.378462 
z
" clip-path="url(#p44cdca3fbe)"/>
   </g>
   <g id="patch_6">
    <path d="M 35.819095 93.295779 
Q 34.475843 93.33712 33.0311 93.357885 
Q 31.586357 93.378462 30.046094 93.378462 
Q 26.565578 93.378462 24.532789 93.255382 
Q 22.5 93.132303 22.5 92.921822 
Q 22.5 92.708887 24.568609 92.586751 
Q 26.640203 92.464615 30.243105 92.464615 
Q 31.631132 92.464615 32.902745 92.481227 
Q 34.177342 92.497651 35.305674 92.530119 
L 35.305674 92.712284 
Q 34.141522 92.670566 32.98931 92.64999 
Q 31.837098 92.629225 30.678916 92.629225 
Q 28.535682 92.629225 27.374514 92.705111 
Q 26.213347 92.780809 26.213347 92.921822 
Q 26.213347 93.061513 27.332724 93.137777 
Q 28.452101 93.213852 30.511755 93.213852 
Q 31.072936 93.213852 31.553522 93.20951 
Q 32.034108 93.20498 32.416189 93.195541 
L 32.416189 93.024514 
L 30.22221 93.024514 
L 30.22221 92.872175 
L 35.819095 92.872175 
L 35.819095 93.295779 
z
" clip-path="url(#p44cdca3fbe)" style="fill: #008000"/>
   </g>
   <g id="patch_7">
    <path d="M 22.5 91.550769 
L 35.541865 91.550769 
L 35.541865 91.728995 
L 27.333446 91.728995 
L 27.333446 91.898994 
L 35.055708 91.898994 
L 35.055708 92.07722 
L 27.333446 92.07722 
L 27.333446 92.286586 
L 35.819095 92.286586 
L 35.819095 92.464615 
L 22.5 92.464615 
L 22.5 91.550769 
z
" clip-path="url(#p44cdca3fbe)" style="fill: #ff0000"/>
   </g>
   <g id="patch_8">
    <path d="M 35.819095 91.485265 
Q 34.704976 91.517734 33.500251 91.534157 
Q 32.295525 91.550769 30.983415 91.550769 
Q 27.070574 91.550769 24.785287 91.42769 
Q 22.5 91.30461 22.5 91.094129 
Q 22.5 90.882893 24.785287 90.760003 
Q 27.070574 90.636923 30.983415 90.636923 
Q 32.295525 90.636923 33.500251 90.653535 
Q 34.704976 90.669958 35.819095 90.702427 
L 35.819095 90.884592 
Q 34.694909 90.841552 33.60428 90.821542 
Q 32.513651 90.801532 31.308926 90.801532 
Q 29.147803 90.801532 27.909519 90.879495 
Q 26.674592 90.957269 26.674592 91.094129 
Q 26.674592 91.230423 27.909519 91.308386 
Q 29.147803 91.38616 31.308926 91.38616 
Q 32.513651 91.38616 33.60428 91.36615 
Q 34.694909 91.345951 35.819095 91.302911 
L 35.819095 91.485265 
z
" clip-path="url(#p44cdca3fbe)" style="fill: #008000"/>
   </g>
   <g id="patch_9">
    <path d="M 34.708568 88.896444 
L 34.708568 89.269457 
Q 33.319504 89.20452 31.995553 89.171673 
Q 30.675219 89.138449 29.499579 89.138449 
Q 27.9405 89.138449 27.191707 89.183377 
Q 26.446533 89.227927 26.446533 89.322314 
Q 26.446533 89.393292 26.949345 89.432934 
Q 27.452157 89.472199 28.776108 89.500515 
L 30.628193 89.539402 
Q 33.442494 89.598676 34.628986 89.719113 
Q 35.819095 89.839172 35.819095 90.061168 
Q 35.819095 90.352255 34.162348 90.494589 
Q 32.5056 90.636923 29.10167 90.636923 
Q 27.499182 90.636923 25.882225 90.604832 
Q 24.265268 90.573118 22.648311 90.510446 
L 22.648311 90.127238 
Q 24.265268 90.216716 25.773705 90.262399 
Q 27.282141 90.307704 28.685674 90.307704 
Q 30.110912 90.307704 30.866939 90.258246 
Q 31.622965 90.20841 31.622965 90.116289 
Q 31.622965 90.033985 31.109301 89.989057 
Q 30.595637 89.944129 29.058262 89.90864 
L 27.372575 89.869753 
Q 24.840428 89.813121 23.668405 89.689287 
Q 22.5 89.565452 22.5 89.355537 
Q 22.5 89.092389 24.127809 88.95081 
Q 25.755618 88.809231 28.808664 88.809231 
Q 30.201346 88.809231 31.669991 88.831128 
Q 33.138637 88.853026 34.708568 88.896444 
z
" clip-path="url(#p44cdca3fbe)" style="fill: #008000"/>
   </g>
   <g id="patch_10">
    <path d="M 22.5 86.981538 
L 26.332306 86.981538 
L 26.332306 87.677989 
L 31.986789 87.677989 
L 31.986789 86.981538 
L 35.819095 86.981538 
L 35.819095 88.809231 
L 31.986789 88.809231 
L 31.986789 88.03444 
L 26.332306 88.03444 
L 26.332306 88.809231 
L 22.5 88.809231 
L 22.5 86.981538 
z
" clip-path="url(#p44cdca3fbe)" style="fill: #0000ff"/>
   </g>
   <g id="patch_11">
    <path d="M 26.742825 84.24 
L 31.57627 84.24 
L 31.57627 86.981538 
L 26.742825 86.981538 
L 26.742825 84.24 
z
" clip-path="url(#p44cdca3fbe)"/>
   </g>
   <g id="patch_12">
    <path d="M 22.5 81.498462 
L 25.795053 81.498462 
L 29.163633 83.522006 
L 32.526765 81.498462 
L 35.819095 81.498462 
L 31.113433 84.24 
L 27.205663 84.24 
L 22.5 81.498462 
z
" clip-path="url(#p44cdca3fbe)"/>
   </g>
   <g id="patch_13">
    <path d="M 22.5 77.843077 
L 35.819095 77.843077 
L 35.819095 78.555979 
L 31.027319 78.555979 
L 31.027319 81.498462 
L 27.301069 81.498462 
L 27.301069 78.555979 
L 22.5 78.555979 
L 22.5 77.843077 
z
" clip-path="url(#p44cdca3fbe)" style="fill: #008000"/>
   </g>
   <g id="patch_14">
    <path d="M 31.726149 76.844231 
L 26.603839 76.844231 
L 25.795053 77.843077 
L 22.5 77.843077 
L 27.205663 72.36 
L 31.113433 72.36 
L 35.819095 77.843077 
L 32.526765 77.843077 
L 31.726149 76.844231 
z
M 27.420794 75.826583 
L 30.901024 75.826583 
L 29.163633 73.645574 
L 27.420794 75.826583 
z
" clip-path="url(#p44cdca3fbe)"/>
   </g>
   <g id="patch_15">
    <path d="M 29.514724 71.266729 
L 29.253891 71.266729 
Q 26.054534 71.266729 24.275879 70.447418 
Q 22.5 69.626822 22.5 68.164411 
Q 22.5 66.704572 24.273105 65.877545 
Q 26.046209 65.049231 29.159548 65.049231 
Q 32.306184 65.049231 34.06264 65.869827 
Q 35.819095 66.689138 35.819095 68.164411 
Q 35.819095 69.176651 34.886759 69.9085 
Q 33.954422 70.640349 32.203516 71.009488 
L 34.811839 72.36 
L 31.62913 72.36 
L 29.514724 71.266729 
z
M 29.159548 66.170798 
Q 27.633401 66.170798 26.792633 66.692996 
Q 25.951866 67.215194 25.951866 68.164411 
Q 25.951866 69.129062 26.77321 69.642256 
Q 27.597329 70.154164 29.159548 70.154164 
Q 30.694019 70.154164 31.534786 69.631967 
Q 32.375554 69.108483 32.375554 68.164411 
Q 32.375554 67.215194 31.534786 66.692996 
Q 30.694019 66.170798 29.159548 66.170798 
z
" clip-path="url(#p44cdca3fbe)" style="fill: #800080"/>
   </g>
   <g id="patch_16">
    <path d="M 22.5 49.513846 
L 26.429005 49.513846 
L 29.154415 57.827574 
L 31.89779 49.513846 
L 35.819095 49.513846 
L 35.819095 65.049231 
L 32.901213 65.049231 
L 32.901213 53.685693 
L 30.142441 62.062681 
L 28.184354 62.062681 
L 25.425582 53.685693 
L 25.425582 65.049231 
L 22.5 65.049231 
L 22.5 49.513846 
z
" clip-path="url(#p44cdca3fbe)"/>
   </g>
   <g id="patch_17">
    <path d="M 22.5 31.236923 
L 26.009939 31.236923 
L 26.009939 37.907647 
L 31.069153 31.236923 
L 35.145117 31.236923 
L 28.589146 39.893588 
L 35.819095 49.513846 
L 31.425107 49.513846 
L 26.009939 42.314321 
L 26.009939 49.513846 
L 22.5 49.513846 
L 22.5 31.236923 
z
" clip-path="url(#p44cdca3fbe)" style="fill: #0000ff"/>
   </g>
   <g id="patch_18">
    <path d="M 27.904163 21.064362 
Q 29.099466 21.064362 29.618064 20.515976 
Q 30.136661 19.963673 30.136661 18.702385 
Q 30.136661 17.452848 29.618064 16.916214 
Q 29.099466 16.375662 27.904163 16.375662 
L 26.304101 16.375662 
L 26.304101 21.064362 
L 27.904163 21.064362 
z
M 26.304101 24.319425 
L 26.304101 31.236923 
L 22.5 31.236923 
L 22.5 12.96 
L 28.308922 12.96 
Q 31.22445 12.96 32.581025 14.174283 
Q 33.940761 15.38465 33.940761 18.005152 
Q 33.940761 19.814825 33.232434 20.978187 
Q 32.527268 22.141549 31.104287 22.693852 
Q 31.885346 22.913207 32.50197 23.692698 
Q 33.121757 24.468273 33.754193 26.046841 
L 35.819095 31.236923 
L 31.768345 31.236923 
L 29.969065 26.69707 
Q 29.425171 25.326105 28.865465 24.824724 
Q 28.308922 24.319425 27.379241 24.319425 
L 26.304101 24.319425 
z
" clip-path="url(#p44cdca3fbe)" style="fill: #0000ff"/>
   </g>
   <g id="patch_19">
    <path d="M 36.520101 95.206154 
L 49.839196 95.206154 
L 49.839196 95.384379 
L 45.047419 95.384379 
L 45.047419 96.12 
L 41.32117 96.12 
L 41.32117 95.384379 
L 36.520101 95.384379 
L 36.520101 95.206154 
z
" clip-path="url(#p44cdca3fbe)" style="fill: #008000"/>
   </g>
   <g id="patch_20">
    <path d="M 49.839196 95.14065 
Q 48.725077 95.173119 47.520351 95.189542 
Q 46.315626 95.206154 45.003515 95.206154 
Q 41.090674 95.206154 38.805387 95.083074 
Q 36.520101 94.959995 36.520101 94.749514 
Q 36.520101 94.538278 38.805387 94.415387 
Q 41.090674 94.292308 45.003515 94.292308 
Q 46.315626 94.292308 47.520351 94.30892 
Q 48.725077 94.325343 49.839196 94.357812 
L 49.839196 94.539977 
Q 48.715009 94.496937 47.62438 94.476927 
Q 46.533752 94.456917 45.329026 94.456917 
Q 43.167903 94.456917 41.92962 94.53488 
Q 40.694692 94.612654 40.694692 94.749514 
Q 40.694692 94.885807 41.92962 94.96377 
Q 43.167903 95.041544 45.329026 95.041544 
Q 46.533752 95.041544 47.62438 95.021535 
Q 48.715009 95.001336 49.839196 94.958296 
L 49.839196 95.14065 
z
" clip-path="url(#p44cdca3fbe)" style="fill: #008000"/>
   </g>
   <g id="patch_21">
    <path d="M 48.728668 92.551828 
L 48.728668 92.924842 
Q 47.339605 92.859904 46.015653 92.827058 
Q 44.695319 92.793834 43.519679 92.793834 
Q 41.9606 92.793834 41.211808 92.838762 
Q 40.466633 92.883312 40.466633 92.977698 
Q 40.466633 93.048677 40.969445 93.088319 
Q 41.472257 93.127583 42.796209 93.155899 
L 44.648294 93.194786 
Q 47.462595 93.254061 48.649087 93.374497 
Q 49.839196 93.494556 49.839196 93.716553 
Q 49.839196 94.007639 48.182448 94.149973 
Q 46.5257 94.292308 43.121771 94.292308 
Q 41.519283 94.292308 39.902326 94.260216 
Q 38.285369 94.228503 36.668412 94.16583 
L 36.668412 93.782623 
Q 38.285369 93.872101 39.793805 93.917784 
Q 41.302242 93.963089 42.705775 93.963089 
Q 44.131012 93.963089 44.887039 93.913631 
Q 45.643066 93.863795 45.643066 93.771674 
Q 45.643066 93.689369 45.129402 93.644442 
Q 44.615738 93.599514 43.078362 93.564025 
L 41.392676 93.525138 
Q 38.860528 93.468506 37.688506 93.344671 
Q 36.520101 93.220837 36.520101 93.010922 
Q 36.520101 92.747774 38.14791 92.606195 
Q 39.775719 92.464615 42.828765 92.464615 
Q 44.221446 92.464615 45.690092 92.486513 
Q 47.158737 92.508411 48.728668 92.551828 
z
" clip-path="url(#p44cdca3fbe)" style="fill: #008000"/>
   </g>
   <g id="patch_22">
    <path d="M 36.520101 85.153846 
L 40.798394 85.153846 
L 46.204399 90.167661 
L 46.204399 85.153846 
L 49.839196 85.153846 
L 49.839196 92.464615 
L 45.557717 92.464615 
L 40.151712 87.4508 
L 40.151712 92.464615 
L 36.520101 92.464615 
L 36.520101 85.153846 
z
" clip-path="url(#p44cdca3fbe)" style="fill: #800080"/>
   </g>
   <g id="patch_23">
    <path d="M 40.169957 27.039811 
L 40.169957 71.089507 
L 41.477595 71.089507 
Q 43.713626 71.089507 44.893837 65.426638 
Q 46.077082 59.763769 46.077082 48.979561 
Q 46.077082 38.257244 44.899905 32.656264 
Q 43.725761 27.039811 41.477595 27.039811 
L 40.169957 27.039811 
z
M 36.520101 12.96 
L 40.367165 12.96 
Q 43.592267 12.96 45.169928 15.311793 
Q 46.747588 17.648113 47.876222 23.264565 
Q 48.871362 28.153818 49.353762 34.543887 
Q 49.839196 40.918483 49.839196 48.979561 
Q 49.839196 57.164419 49.353762 63.569959 
Q 48.871362 69.9755 47.876222 74.849281 
Q 46.738486 80.465733 45.145656 82.817526 
Q 43.552826 85.153846 40.367165 85.153846 
L 36.520101 85.153846 
L 36.520101 12.96 
z
" clip-path="url(#p44cdca3fbe)" style="fill: #ff0000"/>
   </g>
   <g id="patch_24">
    <path d="M 59.76635 95.953526 
L 54.64404 95.953526 
L 53.835254 96.12 
L 50.540201 96.12 
L 55.245864 95.206154 
L 59.153634 95.206154 
L 63.859296 96.12 
L 60.566966 96.12 
L 59.76635 95.953526 
z
M 55.460995 95.783918 
L 58.941225 95.783918 
L 57.203834 95.420416 
L 55.460995 95.783918 
z
" clip-path="url(#p44cdca3fbe)"/>
   </g>
   <g id="patch_25">
    <path d="M 62.748769 94.335914 
L 62.748769 94.522421 
Q 61.359705 94.489952 60.035754 94.473529 
Q 58.71542 94.456917 57.53978 94.456917 
Q 55.980701 94.456917 55.231908 94.479381 
Q 54.486734 94.501656 54.486734 94.548849 
Q 54.486734 94.584338 54.989546 94.604159 
Q 55.492358 94.623792 56.816309 94.63795 
L 58.668394 94.657393 
Q 61.482695 94.68703 62.669187 94.747249 
Q 63.859296 94.807278 63.859296 94.918276 
Q 63.859296 95.06382 62.202549 95.134987 
Q 60.545801 95.206154 57.141871 95.206154 
Q 55.539384 95.206154 53.922426 95.190108 
Q 52.305469 95.174251 50.688512 95.142915 
L 50.688512 94.951311 
Q 52.305469 94.99605 53.813906 95.018892 
Q 55.322342 95.041544 56.725875 95.041544 
Q 58.151113 95.041544 58.90714 95.016815 
Q 59.663166 94.991897 59.663166 94.945837 
Q 59.663166 94.904685 59.149502 94.882221 
Q 58.635838 94.859757 57.098463 94.842012 
L 55.412776 94.822569 
Q 52.880629 94.794253 51.708606 94.732336 
Q 50.540201 94.670418 50.540201 94.565461 
Q 50.540201 94.433887 52.16801 94.363097 
Q 53.795819 94.292308 56.848865 94.292308 
Q 58.241547 94.292308 59.710192 94.303256 
Q 61.178838 94.314205 62.748769 94.335914 
z
" clip-path="url(#p44cdca3fbe)" style="fill: #008000"/>
   </g>
   <g id="patch_26">
    <path d="M 54.190058 93.556687 
L 54.190058 94.114278 
L 55.497696 94.114278 
Q 57.733726 94.114278 58.913938 94.042596 
Q 60.097183 93.970914 60.097183 93.834405 
Q 60.097183 93.69868 58.920005 93.627781 
Q 57.745862 93.556687 55.497696 93.556687 
L 54.190058 93.556687 
z
M 50.540201 93.378462 
L 54.387265 93.378462 
Q 57.612368 93.378462 59.190028 93.408231 
Q 60.767689 93.437805 61.896323 93.508899 
Q 62.891462 93.570788 63.373862 93.651675 
Q 63.859296 93.732366 63.859296 93.834405 
Q 63.859296 93.938011 63.373862 94.019094 
Q 62.891462 94.100177 61.896323 94.16187 
Q 60.758587 94.232964 59.165756 94.262734 
Q 57.572926 94.292308 54.387265 94.292308 
L 50.540201 94.292308 
L 50.540201 93.378462 
z
" clip-path="url(#p44cdca3fbe)" style="fill: #ff0000"/>
   </g>
   <g id="patch_27">
    <path d="M 50.540201 92.464615 
L 57.463356 92.464615 
Q 60.553802 92.464615 62.204815 92.542173 
Q 63.859296 92.619534 63.859296 92.762702 
Q 63.859296 92.906654 62.204815 92.984015 
Q 60.553802 93.061377 57.463356 93.061377 
L 54.712824 93.061377 
L 54.712824 93.378462 
L 50.540201 93.378462 
L 50.540201 92.464615 
z
M 54.712824 92.635398 
L 54.712824 92.890594 
L 57.019386 92.890594 
Q 58.233366 92.890594 58.895852 92.857299 
Q 59.558339 92.824004 59.558339 92.762702 
Q 59.558339 92.701596 58.895852 92.668497 
Q 58.233366 92.635398 57.019386 92.635398 
L 54.712824 92.635398 
z
" clip-path="url(#p44cdca3fbe)"/>
   </g>
   <g id="patch_28">
    <path d="M 63.859296 92.381933 
Q 62.516044 92.423274 61.071301 92.444039 
Q 59.626558 92.464615 58.086295 92.464615 
Q 54.605779 92.464615 52.57299 92.341536 
Q 50.540201 92.218456 50.540201 92.007975 
Q 50.540201 91.79504 52.60881 91.672905 
Q 54.680404 91.550769 58.283306 91.550769 
Q 59.671333 91.550769 60.942946 91.567381 
Q 62.217543 91.583804 63.345876 91.616273 
L 63.345876 91.798438 
Q 62.181723 91.75672 61.029511 91.736144 
Q 59.877299 91.715379 58.719117 91.715379 
Q 56.575883 91.715379 55.414715 91.791265 
Q 54.253548 91.866963 54.253548 92.007975 
Q 54.253548 92.147667 55.372925 92.223931 
Q 56.492302 92.300006 58.551956 92.300006 
Q 59.113137 92.300006 59.593723 92.295664 
Q 60.074309 92.291134 60.45639 92.281695 
L 60.45639 92.110668 
L 58.262411 92.110668 
L 58.262411 91.958328 
L 63.859296 91.958328 
L 63.859296 92.381933 
z
" clip-path="url(#p44cdca3fbe)" style="fill: #008000"/>
   </g>
   <g id="patch_29">
    <path d="M 50.540201 90.636923 
L 54.372507 90.636923 
L 54.372507 90.985148 
L 60.02699 90.985148 
L 60.02699 90.636923 
L 63.859296 90.636923 
L 63.859296 91.550769 
L 60.02699 91.550769 
L 60.02699 91.163374 
L 54.372507 91.163374 
L 54.372507 91.550769 
L 50.540201 91.550769 
L 50.540201 90.636923 
z
" clip-path="url(#p44cdca3fbe)" style="fill: #0000ff"/>
   </g>
   <g id="patch_30">
    <path d="M 50.540201 89.723077 
L 52.843278 89.723077 
L 54.453235 90.387212 
L 56.051206 89.723077 
L 58.366268 89.723077 
L 59.96424 90.387212 
L 61.576194 89.723077 
L 63.859296 89.723077 
L 61.662085 90.636923 
L 58.891601 90.636923 
L 57.199749 89.942235 
L 55.527871 90.636923 
L 52.755389 90.636923 
L 50.540201 89.723077 
z
" clip-path="url(#p44cdca3fbe)"/>
   </g>
   <g id="patch_31">
    <path d="M 50.540201 88.809231 
L 54.05014 88.809231 
L 54.05014 89.142767 
L 59.109354 88.809231 
L 63.185318 88.809231 
L 56.629347 89.242064 
L 63.859296 89.723077 
L 59.465308 89.723077 
L 54.05014 89.363101 
L 54.05014 89.723077 
L 50.540201 89.723077 
L 50.540201 88.809231 
z
" clip-path="url(#p44cdca3fbe)" style="fill: #0000ff"/>
   </g>
   <g id="patch_32">
    <path d="M 57.554925 88.399254 
L 57.294092 88.399254 
Q 54.094735 88.399254 52.31608 88.092013 
Q 50.540201 87.784289 50.540201 87.235885 
Q 50.540201 86.688445 52.313306 86.37831 
Q 54.08641 86.067692 57.199749 86.067692 
Q 60.346385 86.067692 62.102841 86.375416 
Q 63.859296 86.682657 63.859296 87.235885 
Q 63.859296 87.615475 62.92696 87.889918 
Q 61.994623 88.164362 60.243717 88.302789 
L 62.85204 88.809231 
L 59.669331 88.809231 
L 57.554925 88.399254 
z
M 57.199749 86.48828 
Q 55.673602 86.48828 54.832834 86.684104 
Q 53.992067 86.879929 53.992067 87.235885 
Q 53.992067 87.597629 54.813411 87.790077 
Q 55.63753 87.982042 57.199749 87.982042 
Q 58.73422 87.982042 59.574987 87.786218 
Q 60.415755 87.589912 60.415755 87.235885 
Q 60.415755 86.879929 59.574987 86.684104 
Q 58.73422 86.48828 57.199749 86.48828 
z
" clip-path="url(#p44cdca3fbe)" style="fill: #800080"/>
   </g>
   <g id="patch_33">
    <path d="M 50.540201 83.326154 
L 54.222539 83.326154 
L 57.196951 84.30326 
L 60.168564 83.326154 
L 63.859296 83.326154 
L 58.884223 84.912556 
L 58.884223 86.067692 
L 55.518073 86.067692 
L 55.518073 84.912556 
L 50.540201 83.326154 
z
" clip-path="url(#p44cdca3fbe)" style="fill: #008000"/>
   </g>
   <g id="patch_34">
    <path d="M 50.678816 80.584615 
L 63.720681 80.584615 
L 63.720681 81.119292 
L 55.512262 81.119292 
L 55.512262 81.629291 
L 63.234524 81.629291 
L 63.234524 82.163967 
L 55.512262 82.163967 
L 55.512262 83.326154 
L 50.678816 83.326154 
L 50.678816 80.584615 
z
" clip-path="url(#p44cdca3fbe)"/>
   </g>
   <g id="patch_35">
    <path d="M 63.859296 80.388104 
Q 62.745177 80.48551 61.540452 80.53478 
Q 60.335726 80.584615 59.023616 80.584615 
Q 55.110775 80.584615 52.825488 80.215377 
Q 50.540201 79.846139 50.540201 79.214696 
Q 50.540201 78.580987 52.825488 78.212315 
Q 55.110775 77.843077 59.023616 77.843077 
Q 60.335726 77.843077 61.540452 77.892913 
Q 62.745177 77.942182 63.859296 78.039589 
L 63.859296 78.586084 
Q 62.73511 78.456964 61.644481 78.396935 
Q 60.553852 78.336905 59.349127 78.336905 
Q 57.188004 78.336905 55.94972 78.570794 
Q 54.714793 78.804116 54.714793 79.214696 
Q 54.714793 79.623576 55.94972 79.857465 
Q 57.188004 80.090787 59.349127 80.090787 
Q 60.553852 80.090787 61.644481 80.030758 
Q 62.73511 79.970162 63.859296 79.841042 
L 63.859296 80.388104 
z
" clip-path="url(#p44cdca3fbe)" style="fill: #008000"/>
   </g>
   <g id="patch_36">
    <path d="M 50.540201 74.187692 
L 54.469206 74.187692 
L 57.194616 76.143864 
L 59.937991 74.187692 
L 63.859296 74.187692 
L 63.859296 77.843077 
L 60.941414 77.843077 
L 60.941414 75.169303 
L 58.182642 77.140359 
L 56.224555 77.140359 
L 53.465783 75.169303 
L 53.465783 77.843077 
L 50.540201 77.843077 
L 50.540201 74.187692 
z
" clip-path="url(#p44cdca3fbe)"/>
   </g>
   <g id="patch_37">
    <path d="M 50.540201 70.532308 
L 54.818495 70.532308 
L 60.224499 73.039215 
L 60.224499 70.532308 
L 63.859296 70.532308 
L 63.859296 74.187692 
L 59.577817 74.187692 
L 54.171813 71.680785 
L 54.171813 74.187692 
L 50.540201 74.187692 
L 50.540201 70.532308 
z
" clip-path="url(#p44cdca3fbe)" style="fill: #800080"/>
   </g>
   <g id="patch_38">
    <path d="M 50.540201 66.876923 
L 63.582066 66.876923 
L 63.582066 67.589825 
L 55.373647 67.589825 
L 55.373647 68.269824 
L 63.095909 68.269824 
L 63.095909 68.982725 
L 55.373647 68.982725 
L 55.373647 69.820189 
L 63.859296 69.820189 
L 63.859296 70.532308 
L 50.540201 70.532308 
L 50.540201 66.876923 
z
" clip-path="url(#p44cdca3fbe)" style="fill: #ff0000"/>
   </g>
   <g id="patch_39">
    <path d="M 50.540201 63.221538 
L 63.859296 63.221538 
L 63.859296 63.93444 
L 59.06752 63.93444 
L 59.06752 66.876923 
L 55.34127 66.876923 
L 55.34127 63.93444 
L 50.540201 63.93444 
L 50.540201 63.221538 
z
" clip-path="url(#p44cdca3fbe)" style="fill: #008000"/>
   </g>
   <g id="patch_40">
    <path d="M 55.944364 59.661142 
Q 57.139667 59.661142 57.658265 59.469207 
Q 58.176862 59.275901 58.176862 58.83445 
Q 58.176862 58.397112 57.658265 58.20929 
Q 57.139667 58.020097 55.944364 58.020097 
L 54.344302 58.020097 
L 54.344302 59.661142 
L 55.944364 59.661142 
z
M 54.344302 60.800414 
L 54.344302 63.221538 
L 50.540201 63.221538 
L 50.540201 56.824615 
L 56.349123 56.824615 
Q 59.264651 56.824615 60.621226 57.249615 
Q 61.980963 57.673243 61.980963 58.590418 
Q 61.980963 59.223804 61.272635 59.630981 
Q 60.567469 60.038158 59.144488 60.231464 
Q 59.925547 60.308238 60.542171 60.58106 
Q 61.161958 60.852511 61.794394 61.40501 
L 63.859296 63.221538 
L 59.808546 63.221538 
L 58.009266 61.63259 
Q 57.465372 61.152752 56.905666 60.977269 
Q 56.349123 60.800414 55.419442 60.800414 
L 54.344302 60.800414 
z
" clip-path="url(#p44cdca3fbe)" style="fill: #0000ff"/>
   </g>
   <g id="patch_41">
    <path d="M 50.540201 50.427692 
L 55.373647 50.427692 
L 55.373647 55.578408 
L 63.859296 55.578408 
L 63.859296 56.824615 
L 50.540201 56.824615 
L 50.540201 50.427692 
z
" clip-path="url(#p44cdca3fbe)"/>
   </g>
   <g id="patch_42">
    <path d="M 54.783026 37.633846 
L 59.616471 37.633846 
L 59.616471 50.427692 
L 54.783026 50.427692 
L 54.783026 37.633846 
z
" clip-path="url(#p44cdca3fbe)"/>
   </g>
   <g id="patch_43">
    <path d="M 50.540201 12.96 
L 53.835254 12.96 
L 57.203834 31.1719 
L 60.566966 12.96 
L 63.859296 12.96 
L 59.153634 37.633846 
L 55.245864 37.633846 
L 50.540201 12.96 
z
" clip-path="url(#p44cdca3fbe)"/>
   </g>
   <g id="patch_44">
    <path d="M 77.879397 96.054496 
Q 76.765278 96.086965 75.560552 96.103388 
Q 74.355827 96.12 73.043716 96.12 
Q 69.130875 96.12 66.845588 95.996921 
Q 64.560302 95.873841 64.560302 95.66336 
Q 64.560302 95.452124 66.845588 95.329233 
Q 69.130875 95.206154 73.043716 95.206154 
Q 74.355827 95.206154 75.560552 95.222766 
Q 76.765278 95.239189 77.879397 95.271658 
L 77.879397 95.453823 
Q 76.75521 95.410783 75.664581 95.390773 
Q 74.573953 95.370763 73.369227 95.370763 
Q 71.208104 95.370763 69.969821 95.448726 
Q 68.734893 95.5265 68.734893 95.66336 
Q 68.734893 95.799654 69.969821 95.877617 
Q 71.208104 95.955391 73.369227 95.955391 
Q 74.573953 95.955391 75.664581 95.935381 
Q 76.75521 95.915182 77.879397 95.872142 
L 77.879397 96.054496 
z
" clip-path="url(#p44cdca3fbe)" style="fill: #008000"/>
   </g>
   <g id="patch_45">
    <path d="M 77.879397 95.123472 
Q 76.536144 95.164813 75.091402 95.185578 
Q 73.646659 95.206154 72.106396 95.206154 
Q 68.625879 95.206154 66.59309 95.083074 
Q 64.560302 94.959995 64.560302 94.749514 
Q 64.560302 94.536579 66.62891 94.414443 
Q 68.700504 94.292308 72.303406 94.292308 
Q 73.691434 94.292308 74.963046 94.30892 
Q 76.237644 94.325343 77.365976 94.357812 
L 77.365976 94.539977 
Q 76.201824 94.498258 75.049612 94.477682 
Q 73.897399 94.456917 72.739217 94.456917 
Q 70.595983 94.456917 69.434816 94.532803 
Q 68.273649 94.608501 68.273649 94.749514 
Q 68.273649 94.889205 69.393026 94.965469 
Q 70.512403 95.041544 72.572057 95.041544 
Q 73.133238 95.041544 73.613824 95.037203 
Q 74.09441 95.032672 74.47649 95.023234 
L 74.47649 94.852206 
L 72.282511 94.852206 
L 72.282511 94.699867 
L 77.879397 94.699867 
L 77.879397 95.123472 
z
" clip-path="url(#p44cdca3fbe)" style="fill: #008000"/>
   </g>
   <g id="patch_46">
    <path d="M 64.560302 93.378462 
L 68.392608 93.378462 
L 68.392608 93.726687 
L 74.047091 93.726687 
L 74.047091 93.378462 
L 77.879397 93.378462 
L 77.879397 94.292308 
L 74.047091 94.292308 
L 74.047091 93.904912 
L 68.392608 93.904912 
L 68.392608 94.292308 
L 64.560302 94.292308 
L 64.560302 93.378462 
z
" clip-path="url(#p44cdca3fbe)" style="fill: #0000ff"/>
   </g>
   <g id="patch_47">
    <path d="M 68.803126 92.464615 
L 73.636572 92.464615 
L 73.636572 93.378462 
L 68.803126 93.378462 
L 68.803126 92.464615 
z
" clip-path="url(#p44cdca3fbe)"/>
   </g>
   <g id="patch_48">
    <path d="M 64.560302 91.550769 
L 68.838595 91.550769 
L 74.2446 92.177496 
L 74.2446 91.550769 
L 77.879397 91.550769 
L 77.879397 92.464615 
L 73.597918 92.464615 
L 68.191913 91.837888 
L 68.191913 92.464615 
L 64.560302 92.464615 
L 64.560302 91.550769 
z
" clip-path="url(#p44cdca3fbe)" style="fill: #800080"/>
   </g>
   <g id="patch_49">
    <path d="M 76.768869 90.680529 
L 76.768869 90.867036 
Q 75.379806 90.834568 74.055854 90.818144 
Q 72.73552 90.801532 71.55988 90.801532 
Q 70.000801 90.801532 69.252009 90.823996 
Q 68.506834 90.846271 68.506834 90.893464 
Q 68.506834 90.928954 69.009646 90.948775 
Q 69.512458 90.968407 70.83641 90.982565 
L 72.688495 91.002008 
Q 75.502796 91.031646 76.689288 91.091864 
Q 77.879397 91.151894 77.879397 91.262892 
Q 77.879397 91.408435 76.222649 91.479602 
Q 74.565901 91.550769 71.161972 91.550769 
Q 69.559484 91.550769 67.942527 91.534724 
Q 66.32557 91.518867 64.708613 91.487531 
L 64.708613 91.295927 
Q 66.32557 91.340666 67.834006 91.363507 
Q 69.342443 91.38616 70.745976 91.38616 
Q 72.171213 91.38616 72.92724 91.361431 
Q 73.683267 91.336513 73.683267 91.290452 
Q 73.683267 91.2493 73.169603 91.226836 
Q 72.655939 91.204372 71.118563 91.186628 
L 69.432877 91.167184 
Q 66.900729 91.138868 65.728707 91.076951 
Q 64.560302 91.015034 64.560302 90.910076 
Q 64.560302 90.778502 66.188111 90.707713 
Q 67.81592 90.636923 70.868966 90.636923 
Q 72.261647 90.636923 73.730293 90.647872 
Q 75.198938 90.658821 76.768869 90.680529 
z
" clip-path="url(#p44cdca3fbe)" style="fill: #008000"/>
   </g>
   <g id="patch_50">
    <path d="M 68.210158 89.165682 
L 68.210158 90.280864 
L 69.517796 90.280864 
Q 71.753827 90.280864 72.934038 90.1375 
Q 74.117283 89.994136 74.117283 89.721118 
Q 74.117283 89.449667 72.940106 89.30787 
Q 71.765963 89.165682 69.517796 89.165682 
L 68.210158 89.165682 
z
M 64.560302 88.809231 
L 68.407366 88.809231 
Q 71.632468 88.809231 73.210129 88.86877 
Q 74.787789 88.927917 75.916423 89.070106 
Q 76.911563 89.193884 77.393963 89.355658 
Q 77.879397 89.51704 77.879397 89.721118 
Q 77.879397 89.92833 77.393963 90.090496 
Q 76.911563 90.252661 75.916423 90.376048 
Q 74.778687 90.518237 73.185857 90.577776 
Q 71.593027 90.636923 68.407366 90.636923 
L 64.560302 90.636923 
L 64.560302 88.809231 
z
" clip-path="url(#p44cdca3fbe)" style="fill: #ff0000"/>
   </g>
   <g id="patch_51">
    <path d="M 64.560302 86.981538 
L 77.602167 86.981538 
L 77.602167 87.337989 
L 69.393747 87.337989 
L 69.393747 87.677989 
L 77.11601 87.677989 
L 77.11601 88.03444 
L 69.393747 88.03444 
L 69.393747 88.453172 
L 77.879397 88.453172 
L 77.879397 88.809231 
L 64.560302 88.809231 
L 64.560302 86.981538 
z
" clip-path="url(#p44cdca3fbe)" style="fill: #ff0000"/>
   </g>
   <g id="patch_52">
    <path d="M 64.560302 84.24 
L 69.393747 84.24 
L 69.393747 86.44745 
L 77.879397 86.44745 
L 77.879397 86.981538 
L 64.560302 86.981538 
L 64.560302 84.24 
z
" clip-path="url(#p44cdca3fbe)"/>
   </g>
   <g id="patch_53">
    <path d="M 64.698917 81.498462 
L 77.740782 81.498462 
L 77.740782 82.033138 
L 69.532362 82.033138 
L 69.532362 82.543137 
L 77.254625 82.543137 
L 77.254625 83.077813 
L 69.532362 83.077813 
L 69.532362 84.24 
L 64.698917 84.24 
L 64.698917 81.498462 
z
" clip-path="url(#p44cdca3fbe)"/>
   </g>
   <g id="patch_54">
    <path d="M 64.560302 78.756923 
L 68.489306 78.756923 
L 71.214717 80.224052 
L 73.958091 78.756923 
L 77.879397 78.756923 
L 77.879397 81.498462 
L 74.961514 81.498462 
L 74.961514 79.493131 
L 72.202742 80.971423 
L 70.244655 80.971423 
L 67.485883 79.493131 
L 67.485883 81.498462 
L 64.560302 81.498462 
L 64.560302 78.756923 
z
" clip-path="url(#p44cdca3fbe)"/>
   </g>
   <g id="patch_55">
    <path d="M 64.560302 75.101538 
L 67.855355 75.101538 
L 71.223934 77.799598 
L 74.587067 75.101538 
L 77.879397 75.101538 
L 73.173734 78.756923 
L 69.265964 78.756923 
L 64.560302 75.101538 
z
" clip-path="url(#p44cdca3fbe)"/>
   </g>
   <g id="patch_56">
    <path d="M 73.786451 74.435641 
L 68.664141 74.435641 
L 67.855355 75.101538 
L 64.560302 75.101538 
L 69.265964 71.446154 
L 73.173734 71.446154 
L 77.879397 75.101538 
L 74.587067 75.101538 
L 73.786451 74.435641 
z
M 69.481096 73.757209 
L 72.961326 73.757209 
L 71.223934 72.303203 
L 69.481096 73.757209 
z
" clip-path="url(#p44cdca3fbe)"/>
   </g>
   <g id="patch_57">
    <path d="M 71.575025 70.6262 
L 71.314193 70.6262 
Q 68.114835 70.6262 66.336181 70.011718 
Q 64.560302 69.39627 64.560302 68.299462 
Q 64.560302 67.204583 66.333406 66.584312 
Q 68.106511 65.963077 71.219849 65.963077 
Q 74.366486 65.963077 76.122941 66.578524 
Q 77.879397 67.193007 77.879397 68.299462 
Q 77.879397 69.058642 76.94706 69.607529 
Q 76.014724 70.156415 74.263818 70.43327 
L 76.87214 71.446154 
L 73.689432 71.446154 
L 71.575025 70.6262 
z
M 71.219849 66.804253 
Q 69.693703 66.804253 68.852935 67.195901 
Q 68.012167 67.587549 68.012167 68.299462 
Q 68.012167 69.02295 68.833511 69.407846 
Q 69.65763 69.791777 71.219849 69.791777 
Q 72.75432 69.791777 73.595088 69.400129 
Q 74.435856 69.007516 74.435856 68.299462 
Q 74.435856 67.587549 73.595088 67.195901 
Q 72.75432 66.804253 71.219849 66.804253 
z
" clip-path="url(#p44cdca3fbe)" style="fill: #800080"/>
   </g>
   <g id="patch_58">
    <path d="M 64.560302 60.48 
L 77.879397 60.48 
L 77.879397 61.549353 
L 73.08762 61.549353 
L 73.08762 65.963077 
L 69.361371 65.963077 
L 69.361371 61.549353 
L 64.560302 61.549353 
L 64.560302 60.48 
z
" clip-path="url(#p44cdca3fbe)" style="fill: #008000"/>
   </g>
   <g id="patch_59">
    <path d="M 64.560302 54.996923 
L 68.24264 54.996923 
L 71.217051 56.951136 
L 74.188664 54.996923 
L 77.879397 54.996923 
L 72.904323 58.169728 
L 72.904323 60.48 
L 69.538174 60.48 
L 69.538174 58.169728 
L 64.560302 54.996923 
z
" clip-path="url(#p44cdca3fbe)" style="fill: #008000"/>
   </g>
   <g id="patch_60">
    <path d="M 64.560302 36.72 
L 68.070241 36.72 
L 68.070241 43.390724 
L 73.129455 36.72 
L 77.205419 36.72 
L 70.649448 45.376665 
L 77.879397 54.996923 
L 73.485408 54.996923 
L 68.070241 47.797398 
L 68.070241 54.996923 
L 64.560302 54.996923 
L 64.560302 36.72 
z
" clip-path="url(#p44cdca3fbe)" style="fill: #0000ff"/>
   </g>
   <g id="patch_61">
    <path d="M 69.964464 23.495671 
Q 71.159768 23.495671 71.678365 22.782769 
Q 72.196962 22.064775 72.196962 20.425101 
Q 72.196962 18.800703 71.678365 18.103078 
Q 71.159768 17.40036 69.964464 17.40036 
L 68.364402 17.40036 
L 68.364402 23.495671 
L 69.964464 23.495671 
z
M 68.364402 27.727252 
L 68.364402 36.72 
L 64.560302 36.72 
L 64.560302 12.96 
L 70.369223 12.96 
Q 73.284752 12.96 74.641326 14.538568 
Q 76.001063 16.112045 76.001063 19.518697 
Q 76.001063 21.871273 75.292735 23.383643 
Q 74.587569 24.896014 73.164589 25.614008 
Q 73.945647 25.899168 74.562272 26.912508 
Q 75.182059 27.920754 75.814494 29.972893 
L 77.879397 36.72 
L 73.828646 36.72 
L 72.029367 30.818191 
Q 71.485472 29.035937 70.925767 28.384141 
Q 70.369223 27.727252 69.439543 27.727252 
L 68.364402 27.727252 
z
" clip-path="url(#p44cdca3fbe)" style="fill: #0000ff"/>
   </g>
   <g id="patch_62">
    <path d="M 87.806551 95.953526 
L 82.684241 95.953526 
L 81.875455 96.12 
L 78.580402 96.12 
L 83.286065 95.206154 
L 87.193835 95.206154 
L 91.899497 96.12 
L 88.607167 96.12 
L 87.806551 95.953526 
z
M 83.501196 95.783918 
L 86.981426 95.783918 
L 85.244035 95.420416 
L 83.501196 95.783918 
z
" clip-path="url(#p44cdca3fbe)"/>
   </g>
   <g id="patch_63">
    <path d="M 78.580402 94.292308 
L 81.875455 94.292308 
L 85.244035 94.966823 
L 88.607167 94.292308 
L 91.899497 94.292308 
L 87.193835 95.206154 
L 83.286065 95.206154 
L 78.580402 94.292308 
z
" clip-path="url(#p44cdca3fbe)"/>
   </g>
   <g id="patch_64">
    <path d="M 78.580402 93.378462 
L 91.899497 93.378462 
L 91.899497 93.556687 
L 87.107721 93.556687 
L 87.107721 94.292308 
L 83.381471 94.292308 
L 83.381471 93.556687 
L 78.580402 93.556687 
L 78.580402 93.378462 
z
" clip-path="url(#p44cdca3fbe)" style="fill: #008000"/>
   </g>
   <g id="patch_65">
    <path d="M 78.580402 92.464615 
L 82.412708 92.464615 
L 82.412708 92.812841 
L 88.067191 92.812841 
L 88.067191 92.464615 
L 91.899497 92.464615 
L 91.899497 93.378462 
L 88.067191 93.378462 
L 88.067191 92.991066 
L 82.412708 92.991066 
L 82.412708 93.378462 
L 78.580402 93.378462 
L 78.580402 92.464615 
z
" clip-path="url(#p44cdca3fbe)" style="fill: #0000ff"/>
   </g>
   <g id="patch_66">
    <path d="M 78.580402 91.550769 
L 82.090341 91.550769 
L 82.090341 91.884305 
L 87.149555 91.550769 
L 91.225519 91.550769 
L 84.669548 91.983602 
L 91.899497 92.464615 
L 87.505509 92.464615 
L 82.090341 92.104639 
L 82.090341 92.464615 
L 78.580402 92.464615 
L 78.580402 91.550769 
z
" clip-path="url(#p44cdca3fbe)" style="fill: #0000ff"/>
   </g>
   <g id="patch_67">
    <path d="M 90.78897 90.680529 
L 90.78897 90.867036 
Q 89.399906 90.834568 88.075955 90.818144 
Q 86.755621 90.801532 85.579981 90.801532 
Q 84.020902 90.801532 83.272109 90.823996 
Q 82.526935 90.846271 82.526935 90.893464 
Q 82.526935 90.928954 83.029747 90.948775 
Q 83.532559 90.968407 84.85651 90.982565 
L 86.708595 91.002008 
Q 89.522896 91.031646 90.709388 91.091864 
Q 91.899497 91.151894 91.899497 91.262892 
Q 91.899497 91.408435 90.24275 91.479602 
Q 88.586002 91.550769 85.182072 91.550769 
Q 83.579585 91.550769 81.962628 91.534724 
Q 80.345671 91.518867 78.728714 91.487531 
L 78.728714 91.295927 
Q 80.345671 91.340666 81.854107 91.363507 
Q 83.362543 91.38616 84.766076 91.38616 
Q 86.191314 91.38616 86.947341 91.361431 
Q 87.703367 91.336513 87.703367 91.290452 
Q 87.703367 91.2493 87.189703 91.226836 
Q 86.676039 91.204372 85.138664 91.186628 
L 83.452977 91.167184 
Q 80.92083 91.138868 79.748807 91.076951 
Q 78.580402 91.015034 78.580402 90.910076 
Q 78.580402 90.778502 80.208211 90.707713 
Q 81.83602 90.636923 84.889066 90.636923 
Q 86.281748 90.636923 87.750393 90.647872 
Q 89.219039 90.658821 90.78897 90.680529 
z
" clip-path="url(#p44cdca3fbe)" style="fill: #008000"/>
   </g>
   <g id="patch_68">
    <path d="M 83.984565 89.619667 
Q 85.179868 89.619667 85.698466 89.564828 
Q 86.217063 89.509598 86.217063 89.383469 
Q 86.217063 89.258516 85.698466 89.204852 
Q 85.179868 89.150797 83.984565 89.150797 
L 82.384503 89.150797 
L 82.384503 89.619667 
L 83.984565 89.619667 
z
M 82.384503 89.945173 
L 82.384503 90.636923 
L 78.580402 90.636923 
L 78.580402 88.809231 
L 84.389324 88.809231 
Q 87.304852 88.809231 88.661427 88.930659 
Q 90.021164 89.051696 90.021164 89.313746 
Q 90.021164 89.494713 89.312836 89.611049 
Q 88.60767 89.727386 87.184689 89.782616 
Q 87.965748 89.804551 88.582372 89.882501 
Q 89.202159 89.960058 89.834595 90.117915 
L 91.899497 90.636923 
L 87.848747 90.636923 
L 86.049467 90.182938 
Q 85.505573 90.045841 84.945867 89.995703 
Q 84.389324 89.945173 83.459643 89.945173 
L 82.384503 89.945173 
z
" clip-path="url(#p44cdca3fbe)" style="fill: #0000ff"/>
   </g>
   <g id="patch_69">
    <path d="M 85.595126 88.535913 
L 85.334293 88.535913 
Q 82.134936 88.535913 80.356281 88.331085 
Q 78.580402 88.125936 78.580402 87.760333 
Q 78.580402 87.395374 80.353507 87.188617 
Q 82.126611 86.981538 85.23995 86.981538 
Q 88.386586 86.981538 90.143042 87.186688 
Q 91.899497 87.391515 91.899497 87.760333 
Q 91.899497 88.013394 90.967161 88.196356 
Q 90.034824 88.379318 88.283918 88.471603 
L 90.892241 88.809231 
L 87.709532 88.809231 
L 85.595126 88.535913 
z
M 85.23995 87.26193 
Q 83.713803 87.26193 82.873035 87.39248 
Q 82.032268 87.523029 82.032268 87.760333 
Q 82.032268 88.001496 82.853612 88.129795 
Q 83.677731 88.257772 85.23995 88.257772 
Q 86.774421 88.257772 87.615188 88.127222 
Q 88.455956 87.996351 88.455956 87.760333 
Q 88.455956 87.523029 87.615188 87.39248 
Q 86.774421 87.26193 85.23995 87.26193 
z
" clip-path="url(#p44cdca3fbe)" style="fill: #800080"/>
   </g>
   <g id="patch_70">
    <path d="M 78.580402 85.153846 
L 82.26274 85.153846 
L 85.237152 85.80525 
L 88.208765 85.153846 
L 91.899497 85.153846 
L 86.924424 86.211448 
L 86.924424 86.981538 
L 83.558274 86.981538 
L 83.558274 86.211448 
L 78.580402 85.153846 
z
" clip-path="url(#p44cdca3fbe)" style="fill: #008000"/>
   </g>
   <g id="patch_71">
    <path d="M 78.580402 83.326154 
L 80.883479 83.326154 
L 82.493436 84.654423 
L 84.091407 83.326154 
L 86.406469 83.326154 
L 88.004441 84.654423 
L 89.616395 83.326154 
L 91.899497 83.326154 
L 89.702286 85.153846 
L 86.931802 85.153846 
L 85.23995 83.764471 
L 83.568072 85.153846 
L 80.795591 85.153846 
L 78.580402 83.326154 
z
" clip-path="url(#p44cdca3fbe)"/>
   </g>
   <g id="patch_72">
    <path d="M 78.719017 81.498462 
L 91.760882 81.498462 
L 91.760882 81.854912 
L 83.552463 81.854912 
L 83.552463 82.194912 
L 91.274725 82.194912 
L 91.274725 82.551363 
L 83.552463 82.551363 
L 83.552463 83.326154 
L 78.719017 83.326154 
L 78.719017 81.498462 
z
" clip-path="url(#p44cdca3fbe)"/>
   </g>
   <g id="patch_73">
    <path d="M 78.580402 79.670769 
L 82.858696 79.670769 
L 88.2647 80.924223 
L 88.2647 79.670769 
L 91.899497 79.670769 
L 91.899497 81.498462 
L 87.618018 81.498462 
L 82.212014 80.245008 
L 82.212014 81.498462 
L 78.580402 81.498462 
L 78.580402 79.670769 
z
" clip-path="url(#p44cdca3fbe)" style="fill: #800080"/>
   </g>
   <g id="patch_74">
    <path d="M 91.899497 79.474257 
Q 90.785378 79.571664 89.580653 79.620933 
Q 88.375927 79.670769 87.063817 79.670769 
Q 83.150976 79.670769 80.865689 79.301531 
Q 78.580402 78.932292 78.580402 78.300849 
Q 78.580402 77.667141 80.865689 77.298469 
Q 83.150976 76.929231 87.063817 76.929231 
Q 88.375927 76.929231 89.580653 76.979067 
Q 90.785378 77.028336 91.899497 77.125743 
L 91.899497 77.672238 
Q 90.775311 77.543118 89.684682 77.483088 
Q 88.594053 77.423059 87.389328 77.423059 
Q 85.228205 77.423059 83.989921 77.656948 
Q 82.754994 77.89027 82.754994 78.300849 
Q 82.754994 78.70973 83.989921 78.943619 
Q 85.228205 79.176941 87.389328 79.176941 
Q 88.594053 79.176941 89.684682 79.116912 
Q 90.775311 79.056316 91.899497 78.927196 
L 91.899497 79.474257 
z
" clip-path="url(#p44cdca3fbe)" style="fill: #008000"/>
   </g>
   <g id="patch_75">
    <path d="M 78.580402 65.963077 
L 82.509407 65.963077 
L 85.234817 71.831591 
L 87.978192 65.963077 
L 91.899497 65.963077 
L 91.899497 76.929231 
L 88.981615 76.929231 
L 88.981615 68.90791 
L 86.222843 74.821078 
L 84.264756 74.821078 
L 81.505984 68.90791 
L 81.505984 76.929231 
L 78.580402 76.929231 
L 78.580402 65.963077 
z
" clip-path="url(#p44cdca3fbe)"/>
   </g>
   <g id="patch_76">
    <path d="M 78.580402 12.96 
L 83.413848 12.96 
L 83.413848 55.63736 
L 91.899497 55.63736 
L 91.899497 65.963077 
L 78.580402 65.963077 
L 78.580402 12.96 
z
" clip-path="url(#p44cdca3fbe)"/>
   </g>
   <g id="patch_77">
    <path d="M 92.600503 95.206154 
L 96.432809 95.206154 
L 96.432809 95.554379 
L 102.087292 95.554379 
L 102.087292 95.206154 
L 105.919598 95.206154 
L 105.919598 96.12 
L 102.087292 96.12 
L 102.087292 95.732604 
L 96.432809 95.732604 
L 96.432809 96.12 
L 92.600503 96.12 
L 92.600503 95.206154 
z
" clip-path="url(#p44cdca3fbe)" style="fill: #0000ff"/>
   </g>
   <g id="patch_78">
    <path d="M 104.80907 94.335914 
L 104.80907 94.522421 
Q 103.420007 94.489952 102.096055 94.473529 
Q 100.775721 94.456917 99.600081 94.456917 
Q 98.041002 94.456917 97.29221 94.479381 
Q 96.547035 94.501656 96.547035 94.548849 
Q 96.547035 94.584338 97.049847 94.604159 
Q 97.552659 94.623792 98.876611 94.63795 
L 100.728696 94.657393 
Q 103.542997 94.68703 104.729489 94.747249 
Q 105.919598 94.807278 105.919598 94.918276 
Q 105.919598 95.06382 104.26285 95.134987 
Q 102.606102 95.206154 99.202173 95.206154 
Q 97.599685 95.206154 95.982728 95.190108 
Q 94.365771 95.174251 92.748814 95.142915 
L 92.748814 94.951311 
Q 94.365771 94.99605 95.874207 95.018892 
Q 97.382644 95.041544 98.786177 95.041544 
Q 100.211414 95.041544 100.967441 95.016815 
Q 101.723468 94.991897 101.723468 94.945837 
Q 101.723468 94.904685 101.209804 94.882221 
Q 100.69614 94.859757 99.158764 94.842012 
L 97.473078 94.822569 
Q 94.94093 94.794253 93.768908 94.732336 
Q 92.600503 94.670418 92.600503 94.565461 
Q 92.600503 94.433887 94.228312 94.363097 
Q 95.856121 94.292308 98.909167 94.292308 
Q 100.301848 94.292308 101.770494 94.303256 
Q 103.239139 94.314205 104.80907 94.335914 
z
" clip-path="url(#p44cdca3fbe)" style="fill: #008000"/>
   </g>
   <g id="patch_79">
    <path d="M 92.600503 93.378462 
L 96.110442 93.378462 
L 96.110442 93.711998 
L 101.169656 93.378462 
L 105.24562 93.378462 
L 98.689649 93.811295 
L 105.919598 94.292308 
L 101.525609 94.292308 
L 96.110442 93.932331 
L 96.110442 94.292308 
L 92.600503 94.292308 
L 92.600503 93.378462 
z
" clip-path="url(#p44cdca3fbe)" style="fill: #0000ff"/>
   </g>
   <g id="patch_80">
    <path d="M 92.600503 92.464615 
L 96.529507 92.464615 
L 99.254918 92.953658 
L 101.998292 92.464615 
L 105.919598 92.464615 
L 105.919598 93.378462 
L 103.001715 93.378462 
L 103.001715 92.710018 
L 100.242943 93.202782 
L 98.284856 93.202782 
L 95.526084 92.710018 
L 95.526084 93.378462 
L 92.600503 93.378462 
L 92.600503 92.464615 
z
" clip-path="url(#p44cdca3fbe)"/>
   </g>
   <g id="patch_81">
    <path d="M 92.600503 91.550769 
L 96.878796 91.550769 
L 102.284801 92.177496 
L 102.284801 91.550769 
L 105.919598 91.550769 
L 105.919598 92.464615 
L 101.638119 92.464615 
L 96.232114 91.837888 
L 96.232114 92.464615 
L 92.600503 92.464615 
L 92.600503 91.550769 
z
" clip-path="url(#p44cdca3fbe)" style="fill: #800080"/>
   </g>
   <g id="patch_82">
    <path d="M 99.615226 91.41411 
L 99.354394 91.41411 
Q 96.155036 91.41411 94.376382 91.311697 
Q 92.600503 91.209122 92.600503 91.026321 
Q 92.600503 90.843841 94.373607 90.740462 
Q 96.146712 90.636923 99.26005 90.636923 
Q 102.406687 90.636923 104.163142 90.739498 
Q 105.919598 90.841911 105.919598 91.026321 
Q 105.919598 91.152851 104.987261 91.244332 
Q 104.054925 91.335813 102.304019 91.381955 
L 104.912341 91.550769 
L 101.729633 91.550769 
L 99.615226 91.41411 
z
M 99.26005 90.777119 
Q 97.733904 90.777119 96.893136 90.842394 
Q 96.052368 90.907668 96.052368 91.026321 
Q 96.052368 91.146902 96.873712 91.211051 
Q 97.697831 91.27504 99.26005 91.27504 
Q 100.794521 91.27504 101.635289 91.209765 
Q 102.476057 91.14433 102.476057 91.026321 
Q 102.476057 90.907668 101.635289 90.842394 
Q 100.794521 90.777119 99.26005 90.777119 
z
" clip-path="url(#p44cdca3fbe)" style="fill: #800080"/>
   </g>
   <g id="patch_83">
    <path d="M 98.004665 90.128295 
Q 99.199969 90.128295 99.718566 90.100876 
Q 100.237163 90.073261 100.237163 90.010196 
Q 100.237163 89.947719 99.718566 89.920888 
Q 99.199969 89.89386 98.004665 89.89386 
L 96.404603 89.89386 
L 96.404603 90.128295 
L 98.004665 90.128295 
z
M 96.404603 90.291048 
L 96.404603 90.636923 
L 92.600503 90.636923 
L 92.600503 89.723077 
L 98.409424 89.723077 
Q 101.324953 89.723077 102.681527 89.783791 
Q 104.041264 89.844309 104.041264 89.975334 
Q 104.041264 90.065818 103.332936 90.123986 
Q 102.62777 90.182154 101.20479 90.20977 
Q 101.985848 90.220737 102.602473 90.259712 
Q 103.22226 90.298491 103.854695 90.377419 
L 105.919598 90.636923 
L 101.868847 90.636923 
L 100.069568 90.40993 
Q 99.525673 90.341382 98.965968 90.316313 
Q 98.409424 90.291048 97.479744 90.291048 
L 96.404603 90.291048 
z
" clip-path="url(#p44cdca3fbe)" style="fill: #0000ff"/>
   </g>
   <g id="patch_84">
    <path d="M 105.919598 89.592069 
Q 104.805479 89.657007 103.600753 89.689853 
Q 102.396028 89.723077 101.083917 89.723077 
Q 97.171076 89.723077 94.885789 89.476918 
Q 92.600503 89.230759 92.600503 88.809797 
Q 92.600503 88.387325 94.885789 88.141544 
Q 97.171076 87.895385 101.083917 87.895385 
Q 102.396028 87.895385 103.600753 87.928609 
Q 104.805479 87.961455 105.919598 88.026393 
L 105.919598 88.390723 
Q 104.795411 88.304643 103.704782 88.264623 
Q 102.614154 88.224603 101.409428 88.224603 
Q 99.248305 88.224603 98.010022 88.380529 
Q 96.775094 88.536077 96.775094 88.809797 
Q 96.775094 89.082384 98.010022 89.23831 
Q 99.248305 89.393858 101.409428 89.393858 
Q 102.614154 89.393858 103.704782 89.353839 
Q 104.795411 89.313441 105.919598 89.227361 
L 105.919598 89.592069 
z
" clip-path="url(#p44cdca3fbe)" style="fill: #008000"/>
   </g>
   <g id="patch_85">
    <path d="M 92.600503 86.067692 
L 105.919598 86.067692 
L 105.919598 86.424143 
L 101.127821 86.424143 
L 101.127821 87.895385 
L 97.401572 87.895385 
L 97.401572 86.424143 
L 92.600503 86.424143 
L 92.600503 86.067692 
z
" clip-path="url(#p44cdca3fbe)" style="fill: #008000"/>
   </g>
   <g id="patch_86">
    <path d="M 92.600503 84.24 
L 94.903579 84.24 
L 96.513536 85.568269 
L 98.111508 84.24 
L 100.42657 84.24 
L 102.024542 85.568269 
L 103.636496 84.24 
L 105.919598 84.24 
L 103.722387 86.067692 
L 100.951903 86.067692 
L 99.26005 84.678317 
L 97.588172 86.067692 
L 94.815691 86.067692 
L 92.600503 84.24 
z
" clip-path="url(#p44cdca3fbe)"/>
   </g>
   <g id="patch_87">
    <path d="M 92.600503 81.498462 
L 105.642368 81.498462 
L 105.642368 82.033138 
L 97.433948 82.033138 
L 97.433948 82.543137 
L 105.156211 82.543137 
L 105.156211 83.077813 
L 97.433948 83.077813 
L 97.433948 83.705911 
L 105.919598 83.705911 
L 105.919598 84.24 
L 92.600503 84.24 
L 92.600503 81.498462 
z
" clip-path="url(#p44cdca3fbe)" style="fill: #ff0000"/>
   </g>
   <g id="patch_88">
    <path d="M 92.600503 77.843077 
L 97.433948 77.843077 
L 97.433948 80.786343 
L 105.919598 80.786343 
L 105.919598 81.498462 
L 92.600503 81.498462 
L 92.600503 77.843077 
z
" clip-path="url(#p44cdca3fbe)"/>
   </g>
   <g id="patch_89">
    <path d="M 92.600503 73.273846 
L 95.895556 73.273846 
L 99.264135 76.64642 
L 102.627268 73.273846 
L 105.919598 73.273846 
L 101.213935 77.843077 
L 97.306165 77.843077 
L 92.600503 73.273846 
z
" clip-path="url(#p44cdca3fbe)"/>
   </g>
   <g id="patch_90">
    <path d="M 96.843327 65.963077 
L 101.676773 65.963077 
L 101.676773 73.273846 
L 96.843327 73.273846 
L 96.843327 65.963077 
z
" clip-path="url(#p44cdca3fbe)"/>
   </g>
   <g id="patch_91">
    <path d="M 92.600503 47.686154 
L 96.282841 47.686154 
L 99.257252 54.200197 
L 102.228865 47.686154 
L 105.919598 47.686154 
L 100.944524 58.26217 
L 100.944524 65.963077 
L 97.578375 65.963077 
L 97.578375 58.26217 
L 92.600503 47.686154 
z
" clip-path="url(#p44cdca3fbe)" style="fill: #008000"/>
   </g>
   <g id="patch_92">
    <path d="M 92.739118 12.96 
L 105.780983 12.96 
L 105.780983 19.732568 
L 97.572563 19.732568 
L 97.572563 26.192555 
L 105.294826 26.192555 
L 105.294826 32.965122 
L 97.572563 32.965122 
L 97.572563 47.686154 
L 92.739118 47.686154 
L 92.739118 12.96 
z
" clip-path="url(#p44cdca3fbe)"/>
   </g>
   <g id="patch_93">
    <path d="M 110.863428 95.206154 
L 115.696874 95.206154 
L 115.696874 96.12 
L 110.863428 96.12 
L 110.863428 95.206154 
z
" clip-path="url(#p44cdca3fbe)"/>
   </g>
   <g id="patch_94">
    <path d="M 106.620603 94.292308 
L 119.662468 94.292308 
L 119.662468 94.470533 
L 111.454049 94.470533 
L 111.454049 94.640533 
L 119.176311 94.640533 
L 119.176311 94.818758 
L 111.454049 94.818758 
L 111.454049 95.028124 
L 119.939698 95.028124 
L 119.939698 95.206154 
L 106.620603 95.206154 
L 106.620603 94.292308 
z
" clip-path="url(#p44cdca3fbe)" style="fill: #ff0000"/>
   </g>
   <g id="patch_95">
    <path d="M 110.27046 93.556687 
L 110.27046 94.114278 
L 111.578098 94.114278 
Q 113.814128 94.114278 114.99434 94.042596 
Q 116.177585 93.970914 116.177585 93.834405 
Q 116.177585 93.69868 115.000408 93.627781 
Q 113.826264 93.556687 111.578098 93.556687 
L 110.27046 93.556687 
z
M 106.620603 93.378462 
L 110.467667 93.378462 
Q 113.69277 93.378462 115.27043 93.408231 
Q 116.848091 93.437805 117.976725 93.508899 
Q 118.971864 93.570788 119.454264 93.651675 
Q 119.939698 93.732366 119.939698 93.834405 
Q 119.939698 93.938011 119.454264 94.019094 
Q 118.971864 94.100177 117.976725 94.16187 
Q 116.838989 94.232964 115.246158 94.262734 
Q 113.653328 94.292308 110.467667 94.292308 
L 106.620603 94.292308 
L 106.620603 93.378462 
z
" clip-path="url(#p44cdca3fbe)" style="fill: #ff0000"/>
   </g>
   <g id="patch_96">
    <path d="M 118.829171 92.508222 
L 118.829171 92.694729 
Q 117.440107 92.66226 116.116156 92.645837 
Q 114.795822 92.629225 113.620182 92.629225 
Q 112.061103 92.629225 111.31231 92.651689 
Q 110.567136 92.673964 110.567136 92.721157 
Q 110.567136 92.756646 111.069948 92.776467 
Q 111.57276 92.796099 112.896711 92.810257 
L 114.748796 92.829701 
Q 117.563097 92.859338 118.749589 92.919556 
Q 119.939698 92.979586 119.939698 93.090584 
Q 119.939698 93.236127 118.282951 93.307294 
Q 116.626203 93.378462 113.222273 93.378462 
Q 111.619786 93.378462 110.002829 93.362416 
Q 108.385872 93.346559 106.768915 93.315223 
L 106.768915 93.123619 
Q 108.385872 93.168358 109.894308 93.1912 
Q 111.402744 93.213852 112.806277 93.213852 
Q 114.231515 93.213852 114.987542 93.189123 
Q 115.743568 93.164205 115.743568 93.118145 
Q 115.743568 93.076992 115.229904 93.054528 
Q 114.71624 93.032065 113.178865 93.01432 
L 111.493178 92.994876 
Q 108.961031 92.966561 107.789008 92.904643 
Q 106.620603 92.842726 106.620603 92.737769 
Q 106.620603 92.606195 108.248412 92.535405 
Q 109.876221 92.464615 112.929267 92.464615 
Q 114.321949 92.464615 115.790594 92.475564 
Q 117.25924 92.486513 118.829171 92.508222 
z
" clip-path="url(#p44cdca3fbe)" style="fill: #008000"/>
   </g>
   <g id="patch_97">
    <path d="M 106.620603 91.550769 
L 109.915656 91.550769 
L 113.284236 92.225284 
L 116.647368 91.550769 
L 119.939698 91.550769 
L 115.234036 92.464615 
L 111.326266 92.464615 
L 106.620603 91.550769 
z
" clip-path="url(#p44cdca3fbe)"/>
   </g>
   <g id="patch_98">
    <path d="M 106.620603 90.636923 
L 111.454049 90.636923 
L 111.454049 91.37274 
L 119.939698 91.37274 
L 119.939698 91.550769 
L 106.620603 91.550769 
L 106.620603 90.636923 
z
" clip-path="url(#p44cdca3fbe)"/>
   </g>
   <g id="patch_99">
    <path d="M 119.939698 90.505915 
Q 118.825579 90.570853 117.620854 90.603699 
Q 116.416128 90.636923 115.104018 90.636923 
Q 111.191177 90.636923 108.90589 90.390764 
Q 106.620603 90.144605 106.620603 89.723643 
Q 106.620603 89.301171 108.90589 89.05539 
Q 111.191177 88.809231 115.104018 88.809231 
Q 116.416128 88.809231 117.620854 88.842455 
Q 118.825579 88.875301 119.939698 88.940239 
L 119.939698 89.304569 
Q 118.815512 89.218489 117.724883 89.178469 
Q 116.634254 89.138449 115.429529 89.138449 
Q 113.268406 89.138449 112.030122 89.294375 
Q 110.795195 89.449924 110.795195 89.723643 
Q 110.795195 89.99623 112.030122 90.152156 
Q 113.268406 90.307704 115.429529 90.307704 
Q 116.634254 90.307704 117.724883 90.267685 
Q 118.815512 90.227287 119.939698 90.141207 
L 119.939698 90.505915 
z
" clip-path="url(#p44cdca3fbe)" style="fill: #008000"/>
   </g>
   <g id="patch_100">
    <path d="M 106.620603 86.067692 
L 110.549608 86.067692 
L 113.275018 87.534821 
L 116.018393 86.067692 
L 119.939698 86.067692 
L 119.939698 88.809231 
L 117.021816 88.809231 
L 117.021816 86.803901 
L 114.263044 88.282193 
L 112.304957 88.282193 
L 109.546185 86.803901 
L 109.546185 88.809231 
L 106.620603 88.809231 
L 106.620603 86.067692 
z
" clip-path="url(#p44cdca3fbe)"/>
   </g>
   <g id="patch_101">
    <path d="M 106.620603 83.326154 
L 119.939698 83.326154 
L 119.939698 83.86083 
L 115.147922 83.86083 
L 115.147922 86.067692 
L 111.421672 86.067692 
L 111.421672 83.86083 
L 106.620603 83.86083 
L 106.620603 83.326154 
z
" clip-path="url(#p44cdca3fbe)" style="fill: #008000"/>
   </g>
   <g id="patch_102">
    <path d="M 113.635327 82.779518 
L 113.374494 82.779518 
Q 110.175137 82.779518 108.396482 82.369863 
Q 106.620603 81.959565 106.620603 81.228359 
Q 106.620603 80.49844 108.393708 80.084926 
Q 110.166812 79.670769 113.280151 79.670769 
Q 116.426787 79.670769 118.183243 80.081068 
Q 119.939698 80.490723 119.939698 81.228359 
Q 119.939698 81.73448 119.007362 82.100404 
Q 118.075025 82.466328 116.324119 82.650898 
L 118.932442 83.326154 
L 115.749733 83.326154 
L 113.635327 82.779518 
z
M 113.280151 80.231553 
Q 111.754004 80.231553 110.913236 80.492652 
Q 110.072469 80.753751 110.072469 81.228359 
Q 110.072469 81.710685 110.893813 81.967282 
Q 111.717932 82.223236 113.280151 82.223236 
Q 114.814622 82.223236 115.655389 81.962137 
Q 116.496157 81.700395 116.496157 81.228359 
Q 116.496157 80.753751 115.655389 80.492652 
Q 114.814622 80.231553 113.280151 80.231553 
z
" clip-path="url(#p44cdca3fbe)" style="fill: #800080"/>
   </g>
   <g id="patch_103">
    <path d="M 106.620603 57.738462 
L 110.130542 57.738462 
L 110.130542 65.743331 
L 115.189756 57.738462 
L 119.26572 57.738462 
L 112.709749 68.12646 
L 119.939698 79.670769 
L 115.54571 79.670769 
L 110.130542 71.031339 
L 110.130542 79.670769 
L 106.620603 79.670769 
L 106.620603 57.738462 
z
" clip-path="url(#p44cdca3fbe)" style="fill: #0000ff"/>
   </g>
   <g id="patch_104">
    <path d="M 112.024766 32.815687 
Q 113.220069 32.815687 113.738667 31.472142 
Q 114.257264 30.118999 114.257264 27.028844 
Q 114.257264 23.967479 113.738667 22.652723 
Q 113.220069 21.328371 112.024766 21.328371 
L 110.424704 21.328371 
L 110.424704 32.815687 
L 112.024766 32.815687 
z
M 110.424704 40.790591 
L 110.424704 57.738462 
L 106.620603 57.738462 
L 106.620603 12.96 
L 112.429525 12.96 
Q 115.345053 12.96 116.701628 15.934994 
Q 118.061365 18.900392 118.061365 25.320621 
Q 118.061365 29.754322 117.353037 32.604559 
Q 116.647871 35.454795 115.22489 36.807938 
Q 116.005949 37.345356 116.622573 39.25511 
Q 117.24236 41.155268 117.874796 45.02276 
L 119.939698 57.738462 
L 115.888948 57.738462 
L 114.089668 46.615822 
Q 113.545774 43.256957 112.986068 42.028573 
Q 112.429525 40.790591 111.499844 40.790591 
L 110.424704 40.790591 
z
" clip-path="url(#p44cdca3fbe)" style="fill: #0000ff"/>
   </g>
   <g id="patch_105">
    <path d="M 133.959799 96.054496 
Q 132.84568 96.086965 131.640954 96.103388 
Q 130.436229 96.12 129.124118 96.12 
Q 125.211277 96.12 122.92599 95.996921 
Q 120.640704 95.873841 120.640704 95.66336 
Q 120.640704 95.452124 122.92599 95.329233 
Q 125.211277 95.206154 129.124118 95.206154 
Q 130.436229 95.206154 131.640954 95.222766 
Q 132.84568 95.239189 133.959799 95.271658 
L 133.959799 95.453823 
Q 132.835612 95.410783 131.744983 95.390773 
Q 130.654355 95.370763 129.449629 95.370763 
Q 127.288506 95.370763 126.050223 95.448726 
Q 124.815295 95.5265 124.815295 95.66336 
Q 124.815295 95.799654 126.050223 95.877617 
Q 127.288506 95.955391 129.449629 95.955391 
Q 130.654355 95.955391 131.744983 95.935381 
Q 132.835612 95.915182 133.959799 95.872142 
L 133.959799 96.054496 
z
" clip-path="url(#p44cdca3fbe)" style="fill: #008000"/>
   </g>
   <g id="patch_106">
    <path d="M 132.849271 94.335914 
L 132.849271 94.522421 
Q 131.460208 94.489952 130.136256 94.473529 
Q 128.815922 94.456917 127.640282 94.456917 
Q 126.081203 94.456917 125.332411 94.479381 
Q 124.587236 94.501656 124.587236 94.548849 
Q 124.587236 94.584338 125.090048 94.604159 
Q 125.59286 94.623792 126.916812 94.63795 
L 128.768897 94.657393 
Q 131.583198 94.68703 132.76969 94.747249 
Q 133.959799 94.807278 133.959799 94.918276 
Q 133.959799 95.06382 132.303051 95.134987 
Q 130.646303 95.206154 127.242374 95.206154 
Q 125.639886 95.206154 124.022929 95.190108 
Q 122.405972 95.174251 120.789015 95.142915 
L 120.789015 94.951311 
Q 122.405972 94.99605 123.914408 95.018892 
Q 125.422845 95.041544 126.826378 95.041544 
Q 128.251615 95.041544 129.007642 95.016815 
Q 129.763669 94.991897 129.763669 94.945837 
Q 129.763669 94.904685 129.250005 94.882221 
Q 128.736341 94.859757 127.198965 94.842012 
L 125.513279 94.822569 
Q 122.981131 94.794253 121.809109 94.732336 
Q 120.640704 94.670418 120.640704 94.565461 
Q 120.640704 94.433887 122.268513 94.363097 
Q 123.896322 94.292308 126.949368 94.292308 
Q 128.342049 94.292308 129.810695 94.303256 
Q 131.27934 94.314205 132.849271 94.335914 
z
" clip-path="url(#p44cdca3fbe)" style="fill: #008000"/>
   </g>
   <g id="patch_107">
    <path d="M 120.779319 93.378462 
L 133.821184 93.378462 
L 133.821184 93.556687 
L 125.612764 93.556687 
L 125.612764 93.726687 
L 133.335027 93.726687 
L 133.335027 93.904912 
L 125.612764 93.904912 
L 125.612764 94.292308 
L 120.779319 94.292308 
L 120.779319 93.378462 
z
" clip-path="url(#p44cdca3fbe)"/>
   </g>
   <g id="patch_108">
    <path d="M 120.640704 92.464615 
L 124.918997 92.464615 
L 130.325002 93.091342 
L 130.325002 92.464615 
L 133.959799 92.464615 
L 133.959799 93.378462 
L 129.67832 93.378462 
L 124.272315 92.751735 
L 124.272315 93.378462 
L 120.640704 93.378462 
L 120.640704 92.464615 
z
" clip-path="url(#p44cdca3fbe)" style="fill: #800080"/>
   </g>
   <g id="patch_109">
    <path d="M 120.640704 91.550769 
L 122.94378 91.550769 
L 124.553737 92.214904 
L 126.151709 91.550769 
L 128.466771 91.550769 
L 130.064743 92.214904 
L 131.676697 91.550769 
L 133.959799 91.550769 
L 131.762588 92.464615 
L 128.992104 92.464615 
L 127.300251 91.769928 
L 125.628373 92.464615 
L 122.855892 92.464615 
L 120.640704 91.550769 
z
" clip-path="url(#p44cdca3fbe)"/>
   </g>
   <g id="patch_110">
    <path d="M 120.640704 89.723077 
L 125.474149 89.723077 
L 125.474149 91.19471 
L 133.959799 91.19471 
L 133.959799 91.550769 
L 120.640704 91.550769 
L 120.640704 89.723077 
z
" clip-path="url(#p44cdca3fbe)"/>
   </g>
   <g id="patch_111">
    <path d="M 120.640704 87.895385 
L 124.323042 87.895385 
L 127.297453 88.546789 
L 130.269066 87.895385 
L 133.959799 87.895385 
L 128.984725 88.952986 
L 128.984725 89.723077 
L 125.618576 89.723077 
L 125.618576 88.952986 
L 120.640704 87.895385 
z
" clip-path="url(#p44cdca3fbe)" style="fill: #008000"/>
   </g>
   <g id="patch_112">
    <path d="M 124.883529 86.067692 
L 129.716974 86.067692 
L 129.716974 87.895385 
L 124.883529 87.895385 
L 124.883529 86.067692 
z
" clip-path="url(#p44cdca3fbe)"/>
   </g>
   <g id="patch_113">
    <path d="M 120.640704 84.24 
L 124.47301 84.24 
L 124.47301 84.93645 
L 130.127493 84.93645 
L 130.127493 84.24 
L 133.959799 84.24 
L 133.959799 86.067692 
L 130.127493 86.067692 
L 130.127493 85.292901 
L 124.47301 85.292901 
L 124.47301 86.067692 
L 120.640704 86.067692 
L 120.640704 84.24 
z
" clip-path="url(#p44cdca3fbe)" style="fill: #0000ff"/>
   </g>
   <g id="patch_114">
    <path d="M 124.29056 82.033138 
L 124.29056 83.705911 
L 125.598198 83.705911 
Q 127.834229 83.705911 129.01444 83.490866 
Q 130.197685 83.27582 130.197685 82.866293 
Q 130.197685 82.459116 129.020508 82.246421 
Q 127.846365 82.033138 125.598198 82.033138 
L 124.29056 82.033138 
z
M 120.640704 81.498462 
L 124.487768 81.498462 
Q 127.71287 81.498462 129.290531 81.58777 
Q 130.868191 81.676491 131.996825 81.889774 
Q 132.991965 82.075442 133.474365 82.318103 
Q 133.959799 82.560176 133.959799 82.866293 
Q 133.959799 83.17711 133.474365 83.420359 
Q 132.991965 83.663607 131.996825 83.848687 
Q 130.859089 84.06197 129.266259 84.151279 
Q 127.673429 84.24 124.487768 84.24 
L 120.640704 84.24 
L 120.640704 81.498462 
z
" clip-path="url(#p44cdca3fbe)" style="fill: #ff0000"/>
   </g>
   <g id="patch_115">
    <path d="M 120.640704 78.756923 
L 133.959799 78.756923 
L 133.959799 79.291599 
L 129.168022 79.291599 
L 129.168022 81.498462 
L 125.441773 81.498462 
L 125.441773 79.291599 
L 120.640704 79.291599 
L 120.640704 78.756923 
z
" clip-path="url(#p44cdca3fbe)" style="fill: #008000"/>
   </g>
   <g id="patch_116">
    <path d="M 120.640704 74.187692 
L 124.569708 74.187692 
L 127.295119 76.632906 
L 130.038493 74.187692 
L 133.959799 74.187692 
L 133.959799 78.756923 
L 131.041916 78.756923 
L 131.041916 75.414706 
L 128.283144 77.878526 
L 126.325057 77.878526 
L 123.566285 75.414706 
L 123.566285 78.756923 
L 120.640704 78.756923 
L 120.640704 74.187692 
z
" clip-path="url(#p44cdca3fbe)"/>
   </g>
   <g id="patch_117">
    <path d="M 120.640704 69.618462 
L 123.935757 69.618462 
L 127.304336 72.991036 
L 130.667469 69.618462 
L 133.959799 69.618462 
L 129.254136 74.187692 
L 125.346366 74.187692 
L 120.640704 69.618462 
z
" clip-path="url(#p44cdca3fbe)"/>
   </g>
   <g id="patch_118">
    <path d="M 126.044866 66.566693 
Q 127.24017 66.566693 127.758767 66.402177 
Q 128.277364 66.236487 128.277364 65.8581 
Q 128.277364 65.483239 127.758767 65.322249 
Q 127.24017 65.160083 126.044866 65.160083 
L 124.444804 65.160083 
L 124.444804 66.566693 
L 126.044866 66.566693 
z
M 124.444804 67.543212 
L 124.444804 69.618462 
L 120.640704 69.618462 
L 120.640704 64.135385 
L 126.449625 64.135385 
Q 129.365154 64.135385 130.721728 64.49967 
Q 132.081465 64.86278 132.081465 65.64893 
Q 132.081465 66.191832 131.373137 66.540841 
Q 130.667971 66.889849 129.244991 67.05554 
Q 130.026049 67.121347 130.642674 67.355194 
Q 131.262461 67.587866 131.894896 68.061437 
L 133.959799 69.618462 
L 129.909048 69.618462 
L 128.109769 68.256506 
Q 127.565874 67.845216 127.006169 67.694802 
Q 126.449625 67.543212 125.519945 67.543212 
L 124.444804 67.543212 
z
" clip-path="url(#p44cdca3fbe)" style="fill: #0000ff"/>
   </g>
   <g id="patch_119">
    <path d="M 120.640704 58.652308 
L 124.150643 58.652308 
L 124.150643 60.653525 
L 129.209857 58.652308 
L 133.285821 58.652308 
L 126.72985 61.249307 
L 133.959799 64.135385 
L 129.56581 64.135385 
L 124.150643 61.975527 
L 124.150643 64.135385 
L 120.640704 64.135385 
L 120.640704 58.652308 
z
" clip-path="url(#p44cdca3fbe)" style="fill: #0000ff"/>
   </g>
   <g id="patch_120">
    <path d="M 129.866853 57.320513 
L 124.744543 57.320513 
L 123.935757 58.652308 
L 120.640704 58.652308 
L 125.346366 51.341538 
L 129.254136 51.341538 
L 133.959799 58.652308 
L 130.667469 58.652308 
L 129.866853 57.320513 
z
M 125.561498 55.963649 
L 129.041728 55.963649 
L 127.304336 53.055637 
L 125.561498 55.963649 
z
" clip-path="url(#p44cdca3fbe)"/>
   </g>
   <g id="patch_121">
    <path d="M 127.655427 49.428314 
L 127.394595 49.428314 
Q 124.195237 49.428314 122.416583 47.994521 
Q 120.640704 46.558477 120.640704 43.999257 
Q 120.640704 41.44454 122.413808 39.997241 
Q 124.186913 38.547692 127.300251 38.547692 
Q 130.446888 38.547692 132.203343 39.983736 
Q 133.959799 41.417529 133.959799 43.999257 
Q 133.959799 45.770678 133.027462 47.051413 
Q 132.095126 48.332149 130.34422 48.978143 
L 132.952542 51.341538 
L 129.769834 51.341538 
L 127.655427 49.428314 
z
M 127.300251 40.510436 
Q 125.774105 40.510436 124.933337 41.424282 
Q 124.092569 42.338128 124.092569 43.999257 
Q 124.092569 45.687397 124.913913 46.585487 
Q 125.738032 47.481326 127.300251 47.481326 
Q 128.834722 47.481326 129.67549 46.56748 
Q 130.516258 45.651383 130.516258 43.999257 
Q 130.516258 42.338128 129.67549 41.424282 
Q 128.834722 40.510436 127.300251 40.510436 
z
" clip-path="url(#p44cdca3fbe)" style="fill: #800080"/>
   </g>
   <g id="patch_122">
    <path d="M 120.640704 12.96 
L 133.682569 12.96 
L 133.682569 17.950313 
L 125.474149 17.950313 
L 125.474149 22.710304 
L 133.196412 22.710304 
L 133.196412 27.700617 
L 125.474149 27.700617 
L 125.474149 33.562863 
L 133.959799 33.562863 
L 133.959799 38.547692 
L 120.640704 38.547692 
L 120.640704 12.96 
z
" clip-path="url(#p44cdca3fbe)" style="fill: #ff0000"/>
   </g>
   <g id="patch_123">
    <path d="M 147.979899 96.037318 
Q 146.636647 96.078659 145.191904 96.099424 
Q 143.747161 96.12 142.206898 96.12 
Q 138.726382 96.12 136.693593 95.996921 
Q 134.660804 95.873841 134.660804 95.66336 
Q 134.660804 95.450425 136.729413 95.328289 
Q 138.801007 95.206154 142.403909 95.206154 
Q 143.791936 95.206154 145.063549 95.222766 
Q 146.338146 95.239189 147.466479 95.271658 
L 147.466479 95.453823 
Q 146.302326 95.412104 145.150114 95.391528 
Q 143.997902 95.370763 142.83972 95.370763 
Q 140.696486 95.370763 139.535318 95.44665 
Q 138.374151 95.522347 138.374151 95.66336 
Q 138.374151 95.803051 139.493528 95.879315 
Q 140.612905 95.955391 142.672559 95.955391 
Q 143.23374 95.955391 143.714326 95.951049 
Q 144.194912 95.946518 144.576993 95.93708 
L 144.576993 95.766052 
L 142.383014 95.766052 
L 142.383014 95.613713 
L 147.979899 95.613713 
L 147.979899 96.037318 
z
" clip-path="url(#p44cdca3fbe)" style="fill: #008000"/>
   </g>
   <g id="patch_124">
    <path d="M 134.660804 93.378462 
L 147.979899 93.378462 
L 147.979899 93.734912 
L 143.188123 93.734912 
L 143.188123 95.206154 
L 139.461873 95.206154 
L 139.461873 93.734912 
L 134.660804 93.734912 
L 134.660804 93.378462 
z
" clip-path="url(#p44cdca3fbe)" style="fill: #008000"/>
   </g>
   <g id="patch_125">
    <path d="M 147.979899 93.116446 
Q 146.86578 93.246321 145.661055 93.312014 
Q 144.456329 93.378462 143.144219 93.378462 
Q 139.231378 93.378462 136.946091 92.886144 
Q 134.660804 92.393826 134.660804 91.551902 
Q 134.660804 90.706958 136.946091 90.215395 
Q 139.231378 89.723077 143.144219 89.723077 
Q 144.456329 89.723077 145.661055 89.789525 
Q 146.86578 89.855217 147.979899 89.985093 
L 147.979899 90.713753 
Q 146.855713 90.541593 145.765084 90.461554 
Q 144.674455 90.381514 143.46973 90.381514 
Q 141.308607 90.381514 140.070323 90.693366 
Q 138.835396 91.004463 138.835396 91.551902 
Q 138.835396 92.097076 140.070323 92.408928 
Q 141.308607 92.720024 143.46973 92.720024 
Q 144.674455 92.720024 145.765084 92.639985 
Q 146.855713 92.55919 147.979899 92.38703 
L 147.979899 93.116446 
z
" clip-path="url(#p44cdca3fbe)" style="fill: #008000"/>
   </g>
   <g id="patch_126">
    <path d="M 146.869372 79.2802 
L 146.869372 81.518283 
Q 145.480308 81.128657 144.156357 80.931579 
Q 142.836023 80.732235 141.660383 80.732235 
Q 140.101304 80.732235 139.352511 81.001802 
Q 138.607337 81.269103 138.607337 81.83542 
Q 138.607337 82.26129 139.110149 82.499143 
Q 139.612961 82.734731 140.936912 82.904626 
L 142.788997 83.137948 
Q 145.603298 83.493595 146.78979 84.216215 
Q 147.979899 84.936569 147.979899 86.268546 
Q 147.979899 88.015066 146.323152 88.869072 
Q 144.666404 89.723077 141.262474 89.723077 
Q 139.659987 89.723077 138.04303 89.530529 
Q 136.426073 89.340247 134.809116 88.964213 
L 134.809116 86.664968 
Q 136.426073 87.201836 137.934509 87.475933 
Q 139.442945 87.747765 140.846478 87.747765 
Q 142.271716 87.747765 143.027743 87.451015 
Q 143.783769 87.152 143.783769 86.599275 
Q 143.783769 86.105447 143.270105 85.83588 
Q 142.756441 85.566313 141.219066 85.353378 
L 139.533379 85.120056 
Q 137.001232 84.780266 135.829209 84.037259 
Q 134.660804 83.294251 134.660804 82.034763 
Q 134.660804 80.455873 136.288613 79.606398 
Q 137.916422 78.756923 140.969468 78.756923 
Q 142.36215 78.756923 143.830795 78.888309 
Q 145.299441 79.019694 146.869372 79.2802 
z
" clip-path="url(#p44cdca3fbe)" style="fill: #008000"/>
   </g>
   <g id="patch_127">
    <path d="M 143.886953 66.770771 
L 138.764643 66.770771 
L 137.955857 78.756923 
L 134.660804 78.756923 
L 139.366467 12.96 
L 143.274237 12.96 
L 147.979899 78.756923 
L 144.687569 78.756923 
L 143.886953 66.770771 
z
M 139.581598 54.558998 
L 143.061828 54.558998 
L 141.324437 28.386883 
L 139.581598 54.558998 
z
" clip-path="url(#p44cdca3fbe)"/>
   </g>
   <g id="patch_128">
    <path d="M 148.680905 95.206154 
L 161.72277 95.206154 
L 161.72277 95.384379 
L 153.51435 95.384379 
L 153.51435 95.554379 
L 161.236613 95.554379 
L 161.236613 95.732604 
L 153.51435 95.732604 
L 153.51435 95.94197 
L 162 95.94197 
L 162 96.12 
L 148.680905 96.12 
L 148.680905 95.206154 
z
" clip-path="url(#p44cdca3fbe)" style="fill: #ff0000"/>
   </g>
   <g id="patch_129">
    <path d="M 148.680905 94.292308 
L 162 94.292308 
L 162 94.470533 
L 157.208223 94.470533 
L 157.208223 95.206154 
L 153.481974 95.206154 
L 153.481974 94.470533 
L 148.680905 94.470533 
L 148.680905 94.292308 
z
" clip-path="url(#p44cdca3fbe)" style="fill: #008000"/>
   </g>
   <g id="patch_130">
    <path d="M 152.92373 92.464615 
L 157.757175 92.464615 
L 157.757175 94.292308 
L 152.92373 94.292308 
L 152.92373 92.464615 
z
" clip-path="url(#p44cdca3fbe)"/>
   </g>
   <g id="patch_131">
    <path d="M 148.680905 90.636923 
L 153.51435 90.636923 
L 153.51435 92.108556 
L 162 92.108556 
L 162 92.464615 
L 148.680905 92.464615 
L 148.680905 90.636923 
z
" clip-path="url(#p44cdca3fbe)"/>
   </g>
   <g id="patch_132">
    <path d="M 155.695628 90.226946 
L 155.434796 90.226946 
Q 152.235438 90.226946 150.456784 89.919705 
Q 148.680905 89.611981 148.680905 89.063577 
Q 148.680905 88.516138 150.454009 88.206002 
Q 152.227114 87.895385 155.340452 87.895385 
Q 158.487089 87.895385 160.243544 88.203108 
Q 162 88.51035 162 89.063577 
Q 162 89.443167 161.067663 89.717611 
Q 160.135327 89.992054 158.384421 90.130481 
L 160.992743 90.636923 
L 157.810035 90.636923 
L 155.695628 90.226946 
z
M 155.340452 88.315973 
Q 153.814306 88.315973 152.973538 88.511797 
Q 152.13277 88.707621 152.13277 89.063577 
Q 152.13277 89.425321 152.954114 89.617769 
Q 153.778233 89.809735 155.340452 89.809735 
Q 156.874923 89.809735 157.715691 89.613911 
Q 158.556459 89.417604 158.556459 89.063577 
Q 158.556459 88.707621 157.715691 88.511797 
Q 156.874923 88.315973 155.340452 88.315973 
z
" clip-path="url(#p44cdca3fbe)" style="fill: #800080"/>
   </g>
   <g id="patch_133">
    <path d="M 162 87.698873 
Q 160.885881 87.796279 159.681155 87.845549 
Q 158.47643 87.895385 157.164319 87.895385 
Q 153.251478 87.895385 150.966192 87.526146 
Q 148.680905 87.156908 148.680905 86.525465 
Q 148.680905 85.891757 150.966192 85.523085 
Q 153.251478 85.153846 157.164319 85.153846 
Q 158.47643 85.153846 159.681155 85.203682 
Q 160.885881 85.252952 162 85.350358 
L 162 85.896853 
Q 160.875813 85.767733 159.785184 85.707704 
Q 158.694556 85.647674 157.48983 85.647674 
Q 155.328707 85.647674 154.090424 85.881563 
Q 152.855496 86.114885 152.855496 86.525465 
Q 152.855496 86.934345 154.090424 87.168234 
Q 155.328707 87.401557 157.48983 87.401557 
Q 158.694556 87.401557 159.785184 87.341527 
Q 160.875813 87.280931 162 87.151811 
L 162 87.698873 
z
" clip-path="url(#p44cdca3fbe)" style="fill: #008000"/>
   </g>
   <g id="patch_134">
    <path d="M 148.680905 82.412308 
L 151.975958 82.412308 
L 155.344537 84.435852 
L 158.70767 82.412308 
L 162 82.412308 
L 157.294337 85.153846 
L 153.386567 85.153846 
L 148.680905 82.412308 
z
" clip-path="url(#p44cdca3fbe)"/>
   </g>
   <g id="patch_135">
    <path d="M 148.680905 78.756923 
L 152.609909 78.756923 
L 155.33532 80.713094 
L 158.078694 78.756923 
L 162 78.756923 
L 162 82.412308 
L 159.082117 82.412308 
L 159.082117 79.738534 
L 156.323345 81.70959 
L 154.365258 81.70959 
L 151.606486 79.738534 
L 151.606486 82.412308 
L 148.680905 82.412308 
L 148.680905 78.756923 
z
" clip-path="url(#p44cdca3fbe)"/>
   </g>
   <g id="patch_136">
    <path d="M 154.085067 62.480826 
Q 155.280371 62.480826 155.798968 61.603408 
Q 156.317565 60.719723 156.317565 58.701662 
Q 156.317565 56.702404 155.798968 55.843788 
Q 155.280371 54.978905 154.085067 54.978905 
L 152.485005 54.978905 
L 152.485005 62.480826 
L 154.085067 62.480826 
z
M 152.485005 67.688926 
L 152.485005 78.756923 
L 148.680905 78.756923 
L 148.680905 49.513846 
L 154.489826 49.513846 
Q 157.405355 49.513846 158.761929 51.4567 
Q 160.121666 53.393286 160.121666 57.586089 
Q 160.121666 60.481567 159.413338 62.342946 
Q 158.708172 64.204325 157.285192 65.088009 
Q 158.06625 65.438977 158.682875 66.686163 
Q 159.302662 67.927082 159.935097 70.452792 
L 162 78.756923 
L 157.949249 78.756923 
L 156.14997 71.493158 
Q 155.606075 69.299614 155.04637 68.497404 
Q 154.489826 67.688926 153.560146 67.688926 
L 152.485005 67.688926 
z
" clip-path="url(#p44cdca3fbe)" style="fill: #0000ff"/>
   </g>
   <g id="patch_137">
    <path d="M 148.680905 12.96 
L 152.190844 12.96 
L 152.190844 26.301449 
L 157.250058 12.96 
L 161.326022 12.96 
L 154.770051 30.27333 
L 162 49.513846 
L 157.606011 49.513846 
L 152.190844 35.114796 
L 152.190844 49.513846 
L 148.680905 49.513846 
L 148.680905 12.96 
z
" clip-path="url(#p44cdca3fbe)" style="fill: #0000ff"/>
   </g>
   <g id="matplotlib.axis_1">
    <g id="xtick_1">
     <g id="line2d_2">
      <defs>
       <path id="m21d3048bda" d="M 0 0 
L 0 3.5 
" style="stroke: #000000; stroke-width: 0.8"/>
      </defs>
      <g>
       <use xlink:href="#m21d3048bda" x="29.159548" y="96.12" style="stroke: #000000; stroke-width: 0.8"/>
      </g>
     </g>
     <g id="text_1">
      <!-- L48 -->
      <g transform="translate(23.320563 108.130469)scale(0.07 -0.07)">
       <defs>
        <path id="ArialMT-4c" d="M 469 0 
L 469 4581 
L 1075 4581 
L 1075 541 
L 3331 541 
L 3331 0 
L 469 0 
z
" transform="scale(0.015625)"/>
        <path id="ArialMT-34" d="M 2069 0 
L 2069 1097 
L 81 1097 
L 81 1613 
L 2172 4581 
L 2631 4581 
L 2631 1613 
L 3250 1613 
L 3250 1097 
L 2631 1097 
L 2631 0 
L 2069 0 
z
M 2069 1613 
L 2069 3678 
L 634 1613 
L 2069 1613 
z
" transform="scale(0.015625)"/>
        <path id="ArialMT-38" d="M 1131 2484 
Q 781 2613 612 2850 
Q 444 3088 444 3419 
Q 444 3919 803 4259 
Q 1163 4600 1759 4600 
Q 2359 4600 2725 4251 
Q 3091 3903 3091 3403 
Q 3091 3084 2923 2848 
Q 2756 2613 2416 2484 
Q 2838 2347 3058 2040 
Q 3278 1734 3278 1309 
Q 3278 722 2862 322 
Q 2447 -78 1769 -78 
Q 1091 -78 675 323 
Q 259 725 259 1325 
Q 259 1772 486 2073 
Q 713 2375 1131 2484 
z
M 1019 3438 
Q 1019 3113 1228 2906 
Q 1438 2700 1772 2700 
Q 2097 2700 2305 2904 
Q 2513 3109 2513 3406 
Q 2513 3716 2298 3927 
Q 2084 4138 1766 4138 
Q 1444 4138 1231 3931 
Q 1019 3725 1019 3438 
z
M 838 1322 
Q 838 1081 952 856 
Q 1066 631 1291 507 
Q 1516 384 1775 384 
Q 2178 384 2440 643 
Q 2703 903 2703 1303 
Q 2703 1709 2433 1975 
Q 2163 2241 1756 2241 
Q 1359 2241 1098 1978 
Q 838 1716 838 1322 
z
" transform="scale(0.015625)"/>
       </defs>
       <use xlink:href="#ArialMT-4c"/>
       <use xlink:href="#ArialMT-34" x="55.615234"/>
       <use xlink:href="#ArialMT-38" x="111.230469"/>
      </g>
     </g>
    </g>
    <g id="xtick_2">
     <g id="line2d_3">
      <g>
       <use xlink:href="#m21d3048bda" x="43.179648" y="96.12" style="stroke: #000000; stroke-width: 0.8"/>
      </g>
     </g>
     <g id="text_2">
      <!-- D52 -->
      <g transform="translate(36.759336 108.130469)scale(0.07 -0.07)">
       <defs>
        <path id="ArialMT-44" d="M 494 0 
L 494 4581 
L 2072 4581 
Q 2606 4581 2888 4516 
Q 3281 4425 3559 4188 
Q 3922 3881 4101 3404 
Q 4281 2928 4281 2316 
Q 4281 1794 4159 1391 
Q 4038 988 3847 723 
Q 3656 459 3429 307 
Q 3203 156 2883 78 
Q 2563 0 2147 0 
L 494 0 
z
M 1100 541 
L 2078 541 
Q 2531 541 2789 625 
Q 3047 709 3200 863 
Q 3416 1078 3536 1442 
Q 3656 1806 3656 2325 
Q 3656 3044 3420 3430 
Q 3184 3816 2847 3947 
Q 2603 4041 2063 4041 
L 1100 4041 
L 1100 541 
z
" transform="scale(0.015625)"/>
        <path id="ArialMT-35" d="M 266 1200 
L 856 1250 
Q 922 819 1161 601 
Q 1400 384 1738 384 
Q 2144 384 2425 690 
Q 2706 997 2706 1503 
Q 2706 1984 2436 2262 
Q 2166 2541 1728 2541 
Q 1456 2541 1237 2417 
Q 1019 2294 894 2097 
L 366 2166 
L 809 4519 
L 3088 4519 
L 3088 3981 
L 1259 3981 
L 1013 2750 
Q 1425 3038 1878 3038 
Q 2478 3038 2890 2622 
Q 3303 2206 3303 1553 
Q 3303 931 2941 478 
Q 2500 -78 1738 -78 
Q 1113 -78 717 272 
Q 322 622 266 1200 
z
" transform="scale(0.015625)"/>
        <path id="ArialMT-32" d="M 3222 541 
L 3222 0 
L 194 0 
Q 188 203 259 391 
Q 375 700 629 1000 
Q 884 1300 1366 1694 
Q 2113 2306 2375 2664 
Q 2638 3022 2638 3341 
Q 2638 3675 2398 3904 
Q 2159 4134 1775 4134 
Q 1369 4134 1125 3890 
Q 881 3647 878 3216 
L 300 3275 
Q 359 3922 746 4261 
Q 1134 4600 1788 4600 
Q 2447 4600 2831 4234 
Q 3216 3869 3216 3328 
Q 3216 3053 3103 2787 
Q 2991 2522 2730 2228 
Q 2469 1934 1863 1422 
Q 1356 997 1212 845 
Q 1069 694 975 541 
L 3222 541 
z
" transform="scale(0.015625)"/>
       </defs>
       <use xlink:href="#ArialMT-44"/>
       <use xlink:href="#ArialMT-35" x="72.216797"/>
       <use xlink:href="#ArialMT-32" x="127.832031"/>
      </g>
     </g>
    </g>
    <g id="xtick_3">
     <g id="line2d_4">
      <g>
       <use xlink:href="#m21d3048bda" x="57.199749" y="96.12" style="stroke: #000000; stroke-width: 0.8"/>
      </g>
     </g>
     <g id="text_3">
      <!-- I53 -->
      <g transform="translate(52.334749 108.130469)scale(0.07 -0.07)">
       <defs>
        <path id="ArialMT-49" d="M 597 0 
L 597 4581 
L 1203 4581 
L 1203 0 
L 597 0 
z
" transform="scale(0.015625)"/>
        <path id="ArialMT-33" d="M 269 1209 
L 831 1284 
Q 928 806 1161 595 
Q 1394 384 1728 384 
Q 2125 384 2398 659 
Q 2672 934 2672 1341 
Q 2672 1728 2419 1979 
Q 2166 2231 1775 2231 
Q 1616 2231 1378 2169 
L 1441 2663 
Q 1497 2656 1531 2656 
Q 1891 2656 2178 2843 
Q 2466 3031 2466 3422 
Q 2466 3731 2256 3934 
Q 2047 4138 1716 4138 
Q 1388 4138 1169 3931 
Q 950 3725 888 3313 
L 325 3413 
Q 428 3978 793 4289 
Q 1159 4600 1703 4600 
Q 2078 4600 2393 4439 
Q 2709 4278 2876 4000 
Q 3044 3722 3044 3409 
Q 3044 3113 2884 2869 
Q 2725 2625 2413 2481 
Q 2819 2388 3044 2092 
Q 3269 1797 3269 1353 
Q 3269 753 2831 336 
Q 2394 -81 1725 -81 
Q 1122 -81 723 278 
Q 325 638 269 1209 
z
" transform="scale(0.015625)"/>
       </defs>
       <use xlink:href="#ArialMT-49"/>
       <use xlink:href="#ArialMT-35" x="27.783203"/>
       <use xlink:href="#ArialMT-33" x="83.398438"/>
      </g>
     </g>
    </g>
    <g id="xtick_4">
     <g id="line2d_5">
      <g>
       <use xlink:href="#m21d3048bda" x="71.219849" y="96.12" style="stroke: #000000; stroke-width: 0.8"/>
      </g>
     </g>
     <g id="text_4">
      <!-- R55 -->
      <g transform="translate(64.799537 108.130469)scale(0.07 -0.07)">
       <defs>
        <path id="ArialMT-52" d="M 503 0 
L 503 4581 
L 2534 4581 
Q 3147 4581 3465 4457 
Q 3784 4334 3975 4021 
Q 4166 3709 4166 3331 
Q 4166 2844 3850 2509 
Q 3534 2175 2875 2084 
Q 3116 1969 3241 1856 
Q 3506 1613 3744 1247 
L 4541 0 
L 3778 0 
L 3172 953 
Q 2906 1366 2734 1584 
Q 2563 1803 2427 1890 
Q 2291 1978 2150 2013 
Q 2047 2034 1813 2034 
L 1109 2034 
L 1109 0 
L 503 0 
z
M 1109 2559 
L 2413 2559 
Q 2828 2559 3062 2645 
Q 3297 2731 3419 2920 
Q 3541 3109 3541 3331 
Q 3541 3656 3305 3865 
Q 3069 4075 2559 4075 
L 1109 4075 
L 1109 2559 
z
" transform="scale(0.015625)"/>
       </defs>
       <use xlink:href="#ArialMT-52"/>
       <use xlink:href="#ArialMT-35" x="72.216797"/>
       <use xlink:href="#ArialMT-35" x="127.832031"/>
      </g>
     </g>
    </g>
    <g id="xtick_5">
     <g id="line2d_6">
      <g>
       <use xlink:href="#m21d3048bda" x="85.23995" y="96.12" style="stroke: #000000; stroke-width: 0.8"/>
      </g>
     </g>
     <g id="text_5">
      <!-- L56 -->
      <g transform="translate(79.400965 108.130469)scale(0.07 -0.07)">
       <defs>
        <path id="ArialMT-36" d="M 3184 3459 
L 2625 3416 
Q 2550 3747 2413 3897 
Q 2184 4138 1850 4138 
Q 1581 4138 1378 3988 
Q 1113 3794 959 3422 
Q 806 3050 800 2363 
Q 1003 2672 1297 2822 
Q 1591 2972 1913 2972 
Q 2475 2972 2870 2558 
Q 3266 2144 3266 1488 
Q 3266 1056 3080 686 
Q 2894 316 2569 119 
Q 2244 -78 1831 -78 
Q 1128 -78 684 439 
Q 241 956 241 2144 
Q 241 3472 731 4075 
Q 1159 4600 1884 4600 
Q 2425 4600 2770 4297 
Q 3116 3994 3184 3459 
z
M 888 1484 
Q 888 1194 1011 928 
Q 1134 663 1356 523 
Q 1578 384 1822 384 
Q 2178 384 2434 671 
Q 2691 959 2691 1453 
Q 2691 1928 2437 2201 
Q 2184 2475 1800 2475 
Q 1419 2475 1153 2201 
Q 888 1928 888 1484 
z
" transform="scale(0.015625)"/>
       </defs>
       <use xlink:href="#ArialMT-4c"/>
       <use xlink:href="#ArialMT-35" x="55.615234"/>
       <use xlink:href="#ArialMT-36" x="111.230469"/>
      </g>
     </g>
    </g>
    <g id="xtick_6">
     <g id="line2d_7">
      <g>
       <use xlink:href="#m21d3048bda" x="99.26005" y="96.12" style="stroke: #000000; stroke-width: 0.8"/>
      </g>
     </g>
     <g id="text_6">
      <!-- F74 -->
      <g transform="translate(93.22966 108.130469)scale(0.07 -0.07)">
       <defs>
        <path id="ArialMT-46" d="M 525 0 
L 525 4581 
L 3616 4581 
L 3616 4041 
L 1131 4041 
L 1131 2622 
L 3281 2622 
L 3281 2081 
L 1131 2081 
L 1131 0 
L 525 0 
z
" transform="scale(0.015625)"/>
        <path id="ArialMT-37" d="M 303 3981 
L 303 4522 
L 3269 4522 
L 3269 4084 
Q 2831 3619 2401 2847 
Q 1972 2075 1738 1259 
Q 1569 684 1522 0 
L 944 0 
Q 953 541 1156 1306 
Q 1359 2072 1739 2783 
Q 2119 3494 2547 3981 
L 303 3981 
z
" transform="scale(0.015625)"/>
       </defs>
       <use xlink:href="#ArialMT-46"/>
       <use xlink:href="#ArialMT-37" x="61.083984"/>
       <use xlink:href="#ArialMT-34" x="116.699219"/>
      </g>
     </g>
    </g>
    <g id="xtick_7">
     <g id="line2d_8">
      <g>
       <use xlink:href="#m21d3048bda" x="113.280151" y="96.12" style="stroke: #000000; stroke-width: 0.8"/>
      </g>
     </g>
     <g id="text_7">
      <!-- R78 -->
      <g transform="translate(106.859838 108.130469)scale(0.07 -0.07)">
       <use xlink:href="#ArialMT-52"/>
       <use xlink:href="#ArialMT-37" x="72.216797"/>
       <use xlink:href="#ArialMT-38" x="127.832031"/>
      </g>
     </g>
    </g>
    <g id="xtick_8">
     <g id="line2d_9">
      <g>
       <use xlink:href="#m21d3048bda" x="127.300251" y="96.12" style="stroke: #000000; stroke-width: 0.8"/>
      </g>
     </g>
     <g id="text_8">
      <!-- E80 -->
      <g transform="translate(121.072986 108.130469)scale(0.07 -0.07)">
       <defs>
        <path id="ArialMT-45" d="M 506 0 
L 506 4581 
L 3819 4581 
L 3819 4041 
L 1113 4041 
L 1113 2638 
L 3647 2638 
L 3647 2100 
L 1113 2100 
L 1113 541 
L 3925 541 
L 3925 0 
L 506 0 
z
" transform="scale(0.015625)"/>
        <path id="ArialMT-30" d="M 266 2259 
Q 266 3072 433 3567 
Q 600 4063 929 4331 
Q 1259 4600 1759 4600 
Q 2128 4600 2406 4451 
Q 2684 4303 2865 4023 
Q 3047 3744 3150 3342 
Q 3253 2941 3253 2259 
Q 3253 1453 3087 958 
Q 2922 463 2592 192 
Q 2263 -78 1759 -78 
Q 1097 -78 719 397 
Q 266 969 266 2259 
z
M 844 2259 
Q 844 1131 1108 757 
Q 1372 384 1759 384 
Q 2147 384 2411 759 
Q 2675 1134 2675 2259 
Q 2675 3391 2411 3762 
Q 2147 4134 1753 4134 
Q 1366 4134 1134 3806 
Q 844 3388 844 2259 
z
" transform="scale(0.015625)"/>
       </defs>
       <use xlink:href="#ArialMT-45"/>
       <use xlink:href="#ArialMT-38" x="66.699219"/>
       <use xlink:href="#ArialMT-30" x="122.314453"/>
      </g>
     </g>
    </g>
    <g id="xtick_9">
     <g id="line2d_10">
      <g>
       <use xlink:href="#m21d3048bda" x="141.320352" y="96.12" style="stroke: #000000; stroke-width: 0.8"/>
      </g>
     </g>
     <g id="text_9">
      <!-- A81 -->
      <g transform="translate(135.093086 108.130469)scale(0.07 -0.07)">
       <defs>
        <path id="ArialMT-41" d="M -9 0 
L 1750 4581 
L 2403 4581 
L 4278 0 
L 3588 0 
L 3053 1388 
L 1138 1388 
L 634 0 
L -9 0 
z
M 1313 1881 
L 2866 1881 
L 2388 3150 
Q 2169 3728 2063 4100 
Q 1975 3659 1816 3225 
L 1313 1881 
z
" transform="scale(0.015625)"/>
        <path id="ArialMT-31" d="M 2384 0 
L 1822 0 
L 1822 3584 
Q 1619 3391 1289 3197 
Q 959 3003 697 2906 
L 697 3450 
Q 1169 3672 1522 3987 
Q 1875 4303 2022 4600 
L 2384 4600 
L 2384 0 
z
" transform="scale(0.015625)"/>
       </defs>
       <use xlink:href="#ArialMT-41"/>
       <use xlink:href="#ArialMT-38" x="66.699219"/>
       <use xlink:href="#ArialMT-31" x="122.314453"/>
      </g>
     </g>
    </g>
    <g id="xtick_10">
     <g id="line2d_11">
      <g>
       <use xlink:href="#m21d3048bda" x="155.340452" y="96.12" style="stroke: #000000; stroke-width: 0.8"/>
      </g>
     </g>
     <g id="text_10">
      <!-- R82 -->
      <g transform="translate(148.92014 108.130469)scale(0.07 -0.07)">
       <use xlink:href="#ArialMT-52"/>
       <use xlink:href="#ArialMT-38" x="72.216797"/>
       <use xlink:href="#ArialMT-32" x="127.832031"/>
      </g>
     </g>
    </g>
   </g>
   <g id="matplotlib.axis_2">
    <g id="ytick_1">
     <g id="line2d_12">
      <defs>
       <path id="m05b7d7fd72" d="M 0 0 
L -3.5 0 
" style="stroke: #000000; stroke-width: 0.8"/>
      </defs>
      <g>
       <use xlink:href="#m05b7d7fd72" x="22.5" y="96.12" style="stroke: #000000; stroke-width: 0.8"/>
      </g>
     </g>
     <g id="text_11">
      <!-- 0 -->
      <g transform="translate(11.607344 98.625234)scale(0.07 -0.07)">
       <use xlink:href="#ArialMT-30"/>
      </g>
     </g>
    </g>
    <g id="ytick_2">
     <g id="line2d_13">
      <g>
       <use xlink:href="#m05b7d7fd72" x="22.5" y="73.273846" style="stroke: #000000; stroke-width: 0.8"/>
      </g>
     </g>
     <g id="text_12">
      <!-- 25 -->
      <g transform="translate(7.714687 75.779081)scale(0.07 -0.07)">
       <use xlink:href="#ArialMT-32"/>
       <use xlink:href="#ArialMT-35" x="55.615234"/>
      </g>
     </g>
    </g>
    <g id="ytick_3">
     <g id="line2d_14">
      <g>
       <use xlink:href="#m05b7d7fd72" x="22.5" y="50.427692" style="stroke: #000000; stroke-width: 0.8"/>
      </g>
     </g>
     <g id="text_13">
      <!-- 50 -->
      <g transform="translate(7.714687 52.932927)scale(0.07 -0.07)">
       <use xlink:href="#ArialMT-35"/>
       <use xlink:href="#ArialMT-30" x="55.615234"/>
      </g>
     </g>
    </g>
    <g id="ytick_4">
     <g id="line2d_15">
      <g>
       <use xlink:href="#m05b7d7fd72" x="22.5" y="27.581538" style="stroke: #000000; stroke-width: 0.8"/>
      </g>
     </g>
     <g id="text_14">
      <!-- 75 -->
      <g transform="translate(7.714687 30.086773)scale(0.07 -0.07)">
       <use xlink:href="#ArialMT-37"/>
       <use xlink:href="#ArialMT-35" x="55.615234"/>
      </g>
     </g>
    </g>
   </g>
   <g id="patch_138">
    <path d="M 22.5 96.12 
L 22.5 12.96 
" style="fill: none; stroke: #000000; stroke-width: 0.8; stroke-linejoin: miter; stroke-linecap: square"/>
   </g>
   <g id="patch_139">
    <path d="M 22.5 96.12 
L 162 96.12 
" style="fill: none; stroke: #000000; stroke-width: 0.8; stroke-linejoin: miter; stroke-linecap: square"/>
   </g>
  </g>
 </g>
 <defs>
  <clipPath id="p44cdca3fbe">
   <rect x="22.5" y="12.96" width="139.5" height="83.16"/>
  </clipPath>
 </defs>
</svg>
